<svg width="100" height="100" viewBox="0 0 100 100" fill="none" xmlns="http://www.w3.org/2000/svg">
<path fill-rule="evenodd" clip-rule="evenodd" d="M50 0C77.5945 0 100 22.3755 100 50C100 77.5945 77.6245 100 50 100C22.4055 100 0 77.6245 0 50C0 22.4055 22.3755 0 50 0ZM38.3023 22.5555H61.6977C70.4859 22.5555 77.6545 29.6641 77.6545 38.3023V61.6377C77.6545 70.3059 70.4859 77.3845 61.6977 77.3845H38.3023C29.5141 77.3845 22.3455 70.3059 22.3455 61.6377V38.3023C22.3455 29.6341 29.5441 22.5555 38.3023 22.5555ZM49.85 35.183C58.3983 35.183 65.3269 42.1116 65.3269 50.6599C65.3269 59.2082 58.3983 66.1368 49.85 66.1368C41.3017 66.1368 34.3731 59.2082 34.3731 50.6599C34.3731 42.1116 41.3017 35.183 49.85 35.183ZM49.85 40.4019C55.4889 40.4019 60.078 44.991 60.078 50.6299C60.078 56.2687 55.4889 60.8578 49.85 60.8578C44.1812 60.8578 39.6221 56.2687 39.6221 50.6299C39.6221 44.991 44.2112 40.4019 49.85 40.4019ZM64.817 33.0234C66.1968 33.0234 67.3365 34.1332 67.3365 35.5429C67.3365 36.9226 66.2268 38.0624 64.817 38.0624C63.4373 38.0624 62.2975 36.9526 62.2975 35.5429C62.2975 34.1632 63.4073 33.0234 64.817 33.0234ZM40.222 27.0246H59.778C67.1266 27.0246 73.1254 32.9934 73.1254 40.3119V59.988C73.1254 67.3065 67.1266 73.2753 59.778 73.2753H40.222C32.8734 73.2753 26.8746 67.3065 26.8746 59.988V40.3119C26.8746 32.9934 32.8734 27.0246 40.222 27.0246Z" fill="black"/>
</svg>
