<svg width="150" height="150" viewBox="0 0 150 150" fill="none" xmlns="http://www.w3.org/2000/svg">
<path d="M75 0C116.464 0 150 33.5357 150 75C150 116.464 116.464 150 75 150C33.5357 150 0 116.464 0 75C0 33.5357 33.5357 0 75 0ZM61.2857 114.536C94.5 114.536 112.714 87 112.714 63.1071V60.75C116.25 58.1786 119.357 54.9643 121.714 51.3214C118.5 52.7143 114.964 53.6786 111.321 54.2143C115.071 51.9643 117.964 48.4286 119.25 44.25C115.714 46.2857 111.857 47.7857 107.786 48.6429C104.464 45.1071 99.75 42.9643 94.6071 42.9643C84.6429 42.9643 76.5 51.1071 76.5 61.0714C76.5 62.4643 76.6071 63.8571 77.0357 65.1429C62.0357 64.3929 48.6429 57.2143 39.75 46.2857C38.25 48.9643 37.2857 52.0714 37.2857 55.3929C37.2857 61.6071 40.5 67.1786 45.3214 70.3929C42.3214 70.3929 39.5357 69.5357 37.1786 68.1429V68.3571C37.1786 77.1429 43.3929 84.4286 51.6429 86.1429C50.1429 86.5714 48.5357 86.7857 46.9286 86.7857C45.75 86.7857 44.6786 86.6786 43.5 86.4643C45.75 93.6429 52.5 98.8929 60.3214 99C54.1071 103.821 46.2857 106.714 37.8214 106.714C36.3214 106.714 34.9286 106.714 33.5357 106.5C41.4643 111.643 51 114.643 61.1786 114.643" fill="black"/>
</svg>
