<svg width="100" height="100" viewBox="0 0 100 100" fill="none" xmlns="http://www.w3.org/2000/svg">
<path fill-rule="evenodd" clip-rule="evenodd" d="M50 0C77.5945 0 100 22.3755 100 50C100 77.5945 77.6245 100 50 100C22.4055 100 0 77.6245 0 50C0 22.4055 22.3755 0 50 0ZM60.8278 22.3155C61.7576 30.174 66.1368 34.853 73.7253 35.3329V44.1512C69.3161 44.5711 65.4469 43.1314 60.9478 40.4319V56.9286C60.9478 77.9244 38.0624 84.4631 28.8842 69.4361C22.9754 59.778 26.6047 42.7714 45.5609 42.1116V51.4397C44.1212 51.6797 42.5915 52.0396 41.1818 52.5195C36.9526 53.9292 34.5831 56.6287 35.243 61.3377C36.5327 70.3659 53.0894 73.0354 51.7097 55.3989V22.3455H60.8578L60.8278 22.3155Z" fill="black"/>
</svg>
