<svg width="100" height="100" viewBox="0 0 100 100" fill="none" xmlns="http://www.w3.org/2000/svg">
<path d="M50 0C77.6427 0 100 22.3571 100 50C100 77.6427 77.6427 100 50 100C22.3571 100 0 77.6427 0 50C0 22.3571 22.3571 0 50 0ZM40.8571 76.3573C63 76.3573 75.1427 58 75.1427 42.0714V40.5C77.5 38.7857 79.5713 36.6429 81.1427 34.2143C79 35.1429 76.6427 35.7857 74.214 36.1429C76.714 34.6429 78.6427 32.2857 79.5 29.5C77.1427 30.8571 74.5713 31.8571 71.8573 32.4286C69.6427 30.0714 66.5 28.6429 63.0714 28.6429C56.4286 28.6429 51 34.0714 51 40.7143C51 41.6429 51.0714 42.5714 51.3571 43.4286C41.3571 42.9286 32.4286 38.1429 26.5 30.8571C25.5 32.6429 24.8571 34.7143 24.8571 36.9286C24.8571 41.0714 27 44.7857 30.2143 46.9286C28.2143 46.9286 26.3571 46.3571 24.7857 45.4286V45.5714C24.7857 51.4286 28.9286 56.2857 34.4286 57.4286C33.4286 57.7143 32.3571 57.8571 31.2857 57.8571C30.5 57.8571 29.7857 57.7857 29 57.6429C30.5 62.4286 35 65.9286 40.2143 66C36.0714 69.214 30.8571 71.1427 25.2143 71.1427C24.2143 71.1427 23.2857 71.1427 22.3571 71C27.6429 74.4287 34 76.4287 40.7857 76.4287" fill="black"/>
</svg>
