<svg width="643" height="230" viewBox="0 0 643 230" fill="none" xmlns="http://www.w3.org/2000/svg">
<path fill-rule="evenodd" clip-rule="evenodd" d="M471.201 24.337C468.064 23.4608 465.054 26.1389 465.323 29.5661L468.416 68.9352H0L25.5 116.01L0 160.569H470.867L469.46 205.443C469.352 208.88 472.485 211.396 475.576 210.355L520.966 195.072C522.512 194.551 524.202 194.914 525.436 196.03L561.663 228.806C564.13 231.039 567.938 230.011 569.098 226.799L586.128 179.645C586.708 178.039 588.029 176.863 589.622 176.537L636.378 166.943C639.563 166.289 641.179 162.491 639.534 159.527L615.381 116.01C614.558 114.528 614.515 112.7 615.267 111.176L637.344 66.4362C638.848 63.3891 637.055 59.6815 633.844 59.1972L586.695 52.0861C585.089 51.8438 583.714 50.7399 583.059 49.1661L563.833 2.97083C562.524 -0.1755 558.672 -1.00105 556.313 1.35892L521.672 36.0087C520.492 37.1891 518.821 37.6403 517.252 37.202L471.201 24.337Z" fill="#2A3374"/>
<path d="M514.648 94.238C514.176 95.7668 513.922 97.0416 513.886 98.0624C513.85 99.0832 514.021 100.112 514.399 101.147L514.684 101.988L513.998 102.447L504.856 99.6499L504.798 98.21L506.573 98.2928C507.316 98.3251 507.885 98.29 508.28 98.1876C508.682 98.0597 509.01 97.8114 509.263 97.4427C509.55 97.0564 509.815 96.4683 510.059 95.6784L515.745 77.256L510.12 78.7977C509.616 78.5319 509.201 78.0701 508.873 77.4123C508.572 76.7622 508.375 76.0885 508.283 75.3912L520.4 73.7025C520.965 74.0426 521.329 74.67 521.494 75.5848L520.299 75.9302L514.648 94.238ZM523.675 90.349C524.485 87.7245 525.683 85.4698 527.27 83.5848C528.882 81.7076 530.748 80.4101 532.867 79.692C534.994 78.9486 537.205 78.9279 539.5 79.6301C541.744 80.3167 543.463 81.484 544.657 83.132C545.876 84.7879 546.566 86.7559 546.728 89.0362C546.914 91.3243 546.614 93.7424 545.828 96.2905C544.979 99.0423 543.741 101.424 542.115 103.437C540.515 105.457 538.639 106.877 536.488 107.697C534.338 108.517 532.089 108.568 529.743 107.85C527.27 107.093 525.455 105.785 524.299 103.925C523.168 102.074 522.592 99.9594 522.572 97.5829C522.552 95.2064 522.92 92.7951 523.675 90.349ZM527.706 91.666C526.621 95.1823 526.314 98.2537 526.787 100.88C527.268 103.482 528.631 105.125 530.875 105.812C532.354 106.265 533.764 106.125 535.107 105.392C536.483 104.642 537.705 103.44 538.773 101.787C539.875 100.116 540.776 98.1468 541.476 95.8791C542.176 93.6113 542.541 91.4782 542.572 89.4798C542.628 87.4891 542.299 85.7988 541.584 84.4087C540.894 83.0265 539.81 82.1091 538.331 81.6565C536.087 80.97 534.028 81.5811 532.155 83.49C530.282 85.3988 528.799 88.1242 527.706 91.666ZM553.407 114.505L573.315 90.5618L576.069 91.4044L556.123 115.336L553.407 114.505ZM550.221 92.2801C550.708 90.7004 551.433 89.3465 552.395 88.2187C553.391 87.0731 554.542 86.282 555.849 85.8453C557.181 85.4163 558.561 85.4203 559.989 85.8573C562.08 86.497 563.464 87.7569 564.139 89.6368C564.84 91.5245 564.825 93.6532 564.094 96.0229C563.575 97.7046 562.806 99.1565 561.787 100.378C560.801 101.583 559.634 102.425 558.286 102.905C556.963 103.392 555.562 103.41 554.083 102.957C551.839 102.271 550.445 100.91 549.901 98.8753C549.383 96.8482 549.489 94.6498 550.221 92.2801ZM553.422 93.3014C552.8 95.3144 552.599 97.0515 552.818 98.5128C553.037 99.974 553.745 100.888 554.944 101.255C556.117 101.614 557.206 101.25 558.211 100.163C559.25 99.0585 560.076 97.5125 560.689 95.525C561.303 93.5375 561.487 91.8093 561.243 90.3402C561.032 88.8534 560.34 87.9306 559.167 87.5717C557.969 87.205 556.863 87.5778 555.85 88.69C554.845 89.7768 554.035 91.3139 553.422 93.3014ZM566.783 109.688C567.271 108.108 567.996 106.754 568.958 105.626C569.953 104.481 571.104 103.69 572.411 103.253C573.744 102.824 575.124 102.828 576.552 103.265C578.643 103.905 580.026 105.164 580.702 107.044C581.403 108.932 581.388 111.061 580.656 113.43C580.137 115.112 579.368 116.564 578.349 117.786C577.363 118.99 576.197 119.832 574.848 120.312C573.526 120.8 572.125 120.818 570.646 120.365C568.402 119.678 567.008 118.318 566.464 116.283C565.945 114.256 566.052 112.057 566.783 109.688ZM569.984 110.709C569.363 112.722 569.162 114.459 569.38 115.92C569.599 117.382 570.308 118.296 571.506 118.662C572.679 119.021 573.768 118.657 574.774 117.57C575.812 116.466 576.638 114.92 577.252 112.933C577.865 110.945 578.05 109.217 577.806 107.748C577.595 106.261 576.903 105.338 575.73 104.979C574.531 104.613 573.425 104.985 572.412 106.098C571.407 107.184 570.598 108.721 569.984 110.709ZM479.325 116.761C479.105 117.472 479.34 117.932 480.028 118.143C480.602 118.319 481.239 118.288 481.941 118.05L482.319 119.145C481.517 119.627 480.711 119.958 479.902 120.137C479.093 120.317 478.402 120.318 477.828 120.143C476.888 119.855 476.299 119.361 476.063 118.662C475.827 117.962 475.907 116.97 476.303 115.686C474.952 116.728 473.698 117.373 472.541 117.622C471.384 117.87 470.232 117.819 469.085 117.468C467.983 117.131 467.057 116.508 466.307 115.601C465.565 114.671 465.101 113.488 464.917 112.051C464.755 110.621 464.951 109.012 465.503 107.223C466.111 105.251 466.994 103.652 468.152 102.424C469.339 101.181 470.719 100.374 472.291 100.001C473.885 99.6359 475.589 99.7306 477.402 100.285C478.596 100.65 479.64 101.133 480.534 101.733L482.414 95.6445C482.499 95.3694 482.502 95.1569 482.422 95.0071C482.366 94.8643 482.211 94.7544 481.959 94.6771L480.444 94.2137L480.41 93.2245C481.26 92.8319 482.17 92.5706 483.139 92.4405C484.131 92.3175 484.949 92.3543 485.592 92.5509C485.913 92.6492 486.145 92.8332 486.288 93.1028C486.431 93.3724 486.452 93.6677 486.353 93.9887L479.325 116.761ZM469.319 107.676C468.647 109.854 468.518 111.572 468.934 112.829C469.373 114.092 470.155 114.896 471.279 115.24C472.197 115.521 473.136 115.532 474.095 115.273C475.061 114.992 476.016 114.418 476.962 113.553L479.828 104.265C478.992 103.231 477.977 102.532 476.784 102.167C475.108 101.654 473.617 101.888 472.31 102.868C471.01 103.826 470.013 105.428 469.319 107.676ZM492.451 99.3181C492.586 98.8823 492.975 98.4745 493.62 98.0945C494.295 97.6986 494.839 97.5639 495.252 97.6902C495.688 97.8237 496.077 98.2313 496.419 98.9133C496.761 99.5952 496.862 100.165 496.72 100.624C496.586 101.06 496.184 101.464 495.517 101.837C494.849 102.21 494.297 102.33 493.861 102.196C493.471 102.077 493.105 101.676 492.763 100.995C492.421 100.313 492.317 99.7538 492.451 99.3181ZM490.048 120.042C489.808 120.821 490.032 121.317 490.72 121.527C491.294 121.703 491.942 121.638 492.664 121.332L493.042 122.426C492.24 122.909 491.435 123.239 490.626 123.419C489.817 123.598 489.115 123.596 488.518 123.414C487.577 123.126 486.988 122.632 486.752 121.932C486.516 121.232 486.596 120.24 486.993 118.956L490.284 108.293C490.369 108.017 490.372 107.805 490.292 107.655C490.236 107.512 490.082 107.402 489.829 107.325L488.314 106.862L488.281 105.873C489.13 105.48 490.04 105.219 491.009 105.089C491.979 104.959 492.796 104.995 493.462 105.199C493.783 105.297 494.015 105.481 494.158 105.751C494.301 106.02 494.323 106.316 494.224 106.637L490.048 120.042ZM501.69 125.599C502.631 125.887 503.478 125.87 504.23 125.548C505.013 125.21 505.531 124.628 505.786 123.803C506.012 123.069 505.875 122.374 505.374 121.719C504.896 121.071 504.119 120.293 503.042 119.387C502.059 118.584 501.256 117.849 500.634 117.182C500.034 116.521 499.576 115.766 499.26 114.917C498.952 114.044 498.957 113.092 499.276 112.06C499.7 110.684 500.629 109.751 502.061 109.261C503.524 108.754 505.161 108.779 506.974 109.333C508.604 109.832 509.859 110.567 510.739 111.539C511.62 112.512 511.893 113.537 511.561 114.614C511.292 115.486 510.793 116.124 510.066 116.529C509.368 116.918 508.595 116.982 507.745 116.722C507.263 116.575 507.068 116.352 507.161 116.054C507.189 115.962 507.34 115.757 507.614 115.44C507.918 115.106 508.137 114.721 508.271 114.286C508.533 113.437 508.441 112.719 507.995 112.13C507.548 111.542 506.958 111.135 506.224 110.911C505.283 110.623 504.463 110.635 503.763 110.949C503.094 111.246 502.646 111.761 502.419 112.495C502.157 113.344 502.278 114.133 502.781 114.864C503.313 115.58 504.16 116.416 505.321 117.374C506.282 118.169 507.065 118.886 507.672 119.523C508.286 120.138 508.75 120.832 509.064 121.606C509.378 122.379 509.4 123.202 509.131 124.073C508.65 125.633 507.644 126.693 506.115 127.254C504.585 127.815 502.788 127.78 500.722 127.148C498.978 126.614 497.664 125.785 496.78 124.661C495.896 123.538 495.656 122.322 496.06 121.015C496.3 120.235 496.762 119.674 497.446 119.331C498.129 118.988 498.896 118.946 499.745 119.206C500.227 119.354 500.425 119.565 500.34 119.84C500.319 119.909 500.183 120.106 499.932 120.431C499.688 120.732 499.489 121.136 499.333 121.64C499.035 122.603 499.142 123.439 499.652 124.147C500.184 124.862 500.864 125.346 501.69 125.599ZM525.664 130.374C525.754 130.327 525.868 130.324 526.006 130.366C526.189 130.422 526.341 130.581 526.461 130.844C526.604 131.114 526.64 131.363 526.569 131.592C526.527 131.73 526.46 131.823 526.37 131.87C525.284 132.542 524.123 132.965 522.889 133.139C521.685 133.298 520.486 133.195 519.292 132.83C517.709 132.345 516.403 131.531 515.374 130.388C514.353 129.222 513.695 127.854 513.401 126.283C513.114 124.69 513.236 123.033 513.767 121.313C514.327 119.501 515.159 118.024 516.265 116.882C517.378 115.717 518.668 114.957 520.134 114.602C521.63 114.232 523.215 114.303 524.891 114.815C526.658 115.356 527.969 116.234 528.825 117.449C529.71 118.649 529.944 119.925 529.527 121.278C529.222 122.264 528.65 122.98 527.809 123.426C526.998 123.855 526.099 123.919 525.112 123.617C524.676 123.484 524.497 123.291 524.575 123.039C524.596 122.97 524.726 122.834 524.965 122.631C525.203 122.428 525.436 122.16 525.664 121.828C525.892 121.497 526.095 121.044 526.272 120.471C526.555 119.553 526.48 118.74 526.046 118.03C525.642 117.304 524.947 116.79 523.96 116.488C522.652 116.088 521.398 116.407 520.198 117.445C518.998 118.484 518.077 120.046 517.432 122.133C516.774 124.266 516.721 126.107 517.272 127.656C517.854 129.189 518.96 130.205 520.589 130.704C522.241 131.209 523.933 131.1 525.664 130.374ZM531.293 126.638C531.859 124.803 532.684 123.311 533.767 122.162C534.873 121.019 536.171 120.274 537.659 119.927C539.171 119.586 540.776 119.676 542.474 120.195C544.173 120.715 545.54 121.535 546.575 122.655C547.611 123.775 548.264 125.117 548.535 126.68C548.806 128.244 548.658 129.943 548.092 131.778C547.533 133.589 546.697 135.078 545.584 136.243C544.477 137.385 543.18 138.13 541.691 138.478C540.202 138.826 538.609 138.74 536.911 138.22C535.212 137.7 533.834 136.877 532.775 135.75C531.739 134.63 531.086 133.288 530.815 131.724C530.574 130.145 530.734 128.449 531.293 126.638ZM544.446 130.775C544.778 129.697 544.969 128.551 545.017 127.336C545.066 126.121 544.855 125.015 544.384 124.017C543.936 123.027 543.15 122.36 542.025 122.016C541.062 121.721 540.105 121.767 539.157 122.154C538.238 122.526 537.403 123.199 536.65 124.173C535.897 125.148 535.301 126.346 534.862 127.767C534.19 129.946 534.08 131.807 534.533 133.351C534.986 134.895 535.935 135.889 537.381 136.331C538.322 136.619 539.248 136.588 540.159 136.24C541.101 135.875 541.941 135.229 542.679 134.3C543.425 133.349 544.014 132.174 544.446 130.775ZM565.675 143.181C565.456 143.892 565.679 144.349 566.345 144.553C566.872 144.714 567.498 144.68 568.223 144.45L568.601 145.544C567.874 146.025 567.092 146.363 566.253 146.558C565.444 146.737 564.742 146.735 564.145 146.553C563.227 146.272 562.631 145.801 562.358 145.14C562.108 144.486 562.16 143.586 562.513 142.44C561.674 143.287 560.635 143.847 559.395 144.121C558.178 144.401 556.939 144.348 555.676 143.962C554.024 143.456 552.88 142.566 552.243 141.292C551.636 140.003 551.613 138.452 552.172 136.64L554.826 128.04C554.982 127.536 554.83 127.213 554.371 127.073L552.857 126.61L552.823 125.62C553.604 125.207 554.479 124.935 555.448 124.805C556.441 124.682 557.293 124.729 558.004 124.947C558.325 125.045 558.557 125.229 558.7 125.499C558.843 125.768 558.865 126.064 558.766 126.385L555.549 136.807C555.124 138.183 555.077 139.311 555.409 140.19C555.763 141.077 556.48 141.685 557.558 142.015C559.096 142.486 560.495 142.186 561.754 141.115C563.037 140.052 564.039 138.351 564.761 136.012C565.285 134.315 565.589 132.965 565.672 131.961C565.786 130.942 565.725 129.919 565.489 128.893L565.246 128.217L565.818 127.827L570.156 128.665L565.675 143.181ZM577.485 144.084C577.152 145.162 576.967 146.046 576.929 146.737C576.892 147.429 576.987 148.136 577.216 148.858L577.46 149.535L576.887 149.925L570.863 148.081L570.814 146.899L571.59 146.948C572.206 146.986 572.659 146.861 572.948 146.573C573.268 146.27 573.563 145.682 573.832 144.811L576.815 135.145C576.9 134.87 576.903 134.657 576.824 134.507C576.767 134.365 576.613 134.255 576.36 134.177L574.846 133.714L574.812 132.725C575.661 132.332 576.571 132.071 577.54 131.941C578.533 131.818 579.35 131.854 579.993 132.051C580.314 132.149 580.546 132.333 580.689 132.603C580.832 132.873 580.854 133.168 580.755 133.489L579.619 137.17C580.675 135.862 581.949 134.909 583.44 134.31C584.931 133.712 586.33 133.614 587.638 134.014C589.245 134.505 590.263 135.357 590.693 136.567C591.123 137.778 591.005 139.461 590.34 141.617L587.77 149.941C587.53 150.721 587.754 151.216 588.442 151.427C588.97 151.588 589.618 151.523 590.386 151.231L590.764 152.326C589.962 152.808 589.157 153.139 588.348 153.318C587.539 153.497 586.837 153.496 586.24 153.313C585.299 153.025 584.71 152.531 584.474 151.832C584.238 151.132 584.318 150.14 584.715 148.856L587.242 140.669C587.964 138.33 587.338 136.858 585.364 136.255C584.377 135.953 583.385 136.076 582.387 136.624C581.412 137.179 580.487 138.1 579.612 139.389C578.76 140.684 578.051 142.249 577.485 144.084ZM607.21 140.492C607.061 140.973 606.858 141.388 606.6 141.736C606.342 142.083 606.059 142.31 605.749 142.416L602.066 141.289L598.647 152.366C598.428 153.077 598.375 153.613 598.49 153.974C598.604 154.335 598.891 154.586 599.35 154.727C600.039 154.937 600.932 154.809 602.031 154.342L602.409 155.437C601.571 156.034 600.665 156.447 599.69 156.676C598.723 156.882 597.872 156.872 597.137 156.647C596.196 156.359 595.55 155.848 595.199 155.113C594.879 154.363 594.877 153.471 595.196 152.439L598.933 140.331L595.904 139.404C596.095 138.785 596.265 138.398 596.413 138.242C596.562 138.087 596.834 138.02 597.229 138.04C598.545 138.091 599.565 137.839 600.289 137.282C601.043 136.71 601.712 135.885 602.296 134.809C602.478 134.463 602.663 134.269 602.852 134.226C603.064 134.191 603.503 134.275 604.168 134.479L602.735 139.122L607.21 140.492Z" fill="#FAFF00"/>
<path d="M71.1741 102.488C72.5661 102.488 73.6821 102.128 74.5221 101.408C75.3861 100.688 75.8181 99.692 75.8181 98.42C75.8181 97.388 75.5541 96.512 75.0261 95.792C74.4981 95.072 73.8381 94.484 73.0461 94.028C72.2781 93.572 71.2221 93.044 69.8781 92.444C68.3421 91.748 67.1061 91.112 66.1701 90.536C65.2581 89.96 64.4781 89.192 63.8301 88.232C63.1821 87.272 62.8581 86.072 62.8581 84.632C62.8581 83.408 63.1461 82.268 63.7221 81.212C64.3221 80.132 65.2101 79.268 66.3861 78.62C67.5621 77.972 69.0021 77.648 70.7061 77.648C72.2661 77.648 73.6581 77.876 74.8821 78.332C76.1301 78.764 77.0901 79.388 77.7621 80.204C78.4581 80.996 78.8061 81.908 78.8061 82.94C78.8061 84.164 78.4341 85.172 77.6901 85.964C76.9701 86.756 76.0581 87.152 74.9541 87.152C74.4501 87.152 74.1981 87.008 74.1981 86.72C74.1981 86.648 74.2941 86.444 74.4861 86.108C74.7021 85.772 74.8821 85.4 75.0261 84.992C75.1941 84.56 75.2781 84.044 75.2781 83.444C75.2781 82.316 74.8581 81.404 74.0181 80.708C73.1781 80.012 72.0741 79.664 70.7061 79.664C69.2901 79.664 68.1981 80.072 67.4301 80.888C66.6621 81.68 66.2781 82.652 66.2781 83.804C66.2781 84.692 66.5301 85.46 67.0341 86.108C67.5381 86.756 68.1621 87.296 68.9061 87.728C69.6501 88.16 70.6821 88.676 72.0021 89.276C73.5861 89.972 74.8701 90.632 75.8541 91.256C76.8621 91.856 77.7141 92.672 78.4101 93.704C79.1061 94.712 79.4541 95.972 79.4541 97.484C79.4541 99.62 78.7341 101.324 77.2941 102.596C75.8781 103.868 73.8381 104.504 71.1741 104.504C69.4461 104.504 67.9101 104.264 66.5661 103.784C65.2221 103.28 64.1661 102.596 63.3981 101.732C62.6541 100.844 62.2821 99.836 62.2821 98.708C62.2821 97.484 62.6661 96.476 63.4341 95.684C64.2261 94.892 65.2101 94.496 66.3861 94.496C66.6501 94.496 66.8421 94.544 66.9621 94.64C67.0821 94.712 67.1421 94.808 67.1421 94.928C67.1421 95 67.0341 95.204 66.8181 95.54C66.6021 95.852 66.4101 96.224 66.2421 96.656C66.0741 97.088 65.9901 97.604 65.9901 98.204C65.9901 99.476 66.4701 100.508 67.4301 101.3C68.3901 102.092 69.6381 102.488 71.1741 102.488ZM88.2117 87.908C89.7717 86.396 91.4997 85.64 93.3957 85.64C94.8837 85.64 96.2037 86.012 97.3557 86.756C98.5317 87.5 99.4437 88.532 100.092 89.852C100.74 91.172 101.064 92.672 101.064 94.352C101.064 96.272 100.716 98.012 100.02 99.572C99.3477 101.108 98.4117 102.32 97.2117 103.208C96.0117 104.072 94.6557 104.504 93.1437 104.504C91.7277 104.504 90.5277 104.18 89.5437 103.532C89.3277 103.388 89.2197 103.172 89.2197 102.884C89.2197 102.644 89.2557 102.44 89.3277 102.272C89.4237 102.08 89.5677 101.984 89.7597 101.984C89.8557 101.984 90.1197 102.08 90.5517 102.272C91.0077 102.464 91.5957 102.56 92.3157 102.56C93.2517 102.56 94.0917 102.236 94.8357 101.588C95.6037 100.94 96.1917 100.052 96.5997 98.924C97.0317 97.772 97.2477 96.488 97.2477 95.072C97.2477 93.704 97.0317 92.492 96.5997 91.436C96.1917 90.356 95.6037 89.516 94.8357 88.916C94.0917 88.316 93.2277 88.016 92.2437 88.016C90.7797 88.016 89.4357 88.484 88.2117 89.42V109.58C88.2117 110.492 88.3077 111.128 88.4997 111.488C88.7157 111.872 89.1237 112.136 89.7237 112.28L90.4797 112.46L90.0837 113.576H83.8197L83.3877 113.036L83.8197 112.46C84.2517 111.836 84.5517 111.188 84.7197 110.516C84.8877 109.844 84.9717 108.944 84.9717 107.816V90.284C84.9717 89.9 84.9117 89.624 84.7917 89.456C84.6957 89.288 84.5037 89.168 84.2157 89.096L82.3437 88.7V87.512C82.7277 87.176 83.4597 86.852 84.5397 86.54C85.6197 86.228 86.5557 86.072 87.3477 86.072C87.9237 86.072 88.2117 86.624 88.2117 87.728V87.908ZM119.702 101.3C118.814 102.332 117.758 103.124 116.534 103.676C115.31 104.228 113.99 104.504 112.574 104.504C110.918 104.504 109.466 104.12 108.218 103.352C106.97 102.584 105.998 101.504 105.302 100.112C104.63 98.72 104.294 97.112 104.294 95.288C104.294 93.368 104.678 91.688 105.446 90.248C106.214 88.784 107.294 87.656 108.686 86.864C110.102 86.048 111.746 85.64 113.618 85.64C114.938 85.64 116.054 85.892 116.966 86.396C117.902 86.876 118.598 87.524 119.054 88.34C119.51 89.132 119.738 89.996 119.738 90.932C119.738 91.94 119.462 92.912 118.91 93.848C118.382 94.784 117.602 95.552 116.57 96.152C115.538 96.728 114.302 97.016 112.862 97.016C112.094 97.016 111.242 96.872 110.306 96.584C109.37 96.296 108.902 95.876 108.902 95.324C108.902 95.132 108.95 94.952 109.046 94.784C109.166 94.616 109.298 94.532 109.442 94.532C109.514 94.532 109.754 94.616 110.162 94.784C110.57 94.928 111.098 95 111.746 95C113.186 95 114.302 94.592 115.094 93.776C115.91 92.96 116.318 92 116.318 90.896C116.318 89.96 116.018 89.156 115.418 88.484C114.818 87.788 113.978 87.44 112.898 87.44C111.362 87.44 110.162 88.124 109.298 89.492C108.434 90.836 108.002 92.768 108.002 95.288C108.002 97.424 108.458 99.104 109.37 100.328C110.282 101.528 111.602 102.128 113.33 102.128C115.442 102.128 117.194 101.444 118.586 100.076C118.682 99.98 118.79 99.932 118.91 99.932C119.102 99.932 119.306 100.052 119.522 100.292C119.738 100.508 119.846 100.736 119.846 100.976C119.846 101.096 119.798 101.204 119.702 101.3ZM137.389 100.292C137.461 100.22 137.569 100.184 137.713 100.184C137.905 100.184 138.097 100.292 138.289 100.508C138.505 100.724 138.613 100.952 138.613 101.192C138.613 101.336 138.577 101.444 138.505 101.516C137.665 102.476 136.681 103.22 135.553 103.748C134.449 104.252 133.273 104.504 132.025 104.504C130.369 104.504 128.881 104.108 127.561 103.316C126.241 102.5 125.209 101.384 124.465 99.968C123.721 98.528 123.349 96.908 123.349 95.108C123.349 93.212 123.709 91.556 124.429 90.14C125.149 88.7 126.157 87.596 127.453 86.828C128.773 86.036 130.309 85.64 132.061 85.64C133.909 85.64 135.421 86.096 136.597 87.008C137.797 87.896 138.397 89.048 138.397 90.464C138.397 91.496 138.061 92.348 137.389 93.02C136.741 93.668 135.901 93.992 134.869 93.992C134.413 93.992 134.185 93.86 134.185 93.596C134.185 93.524 134.269 93.356 134.437 93.092C134.605 92.828 134.749 92.504 134.869 92.12C134.989 91.736 135.049 91.244 135.049 90.644C135.049 89.684 134.737 88.928 134.113 88.376C133.513 87.8 132.697 87.512 131.665 87.512C130.297 87.512 129.193 88.184 128.353 89.528C127.513 90.872 127.093 92.636 127.093 94.82C127.093 97.052 127.585 98.828 128.569 100.148C129.577 101.444 130.933 102.092 132.637 102.092C134.365 102.092 135.949 101.492 137.389 100.292ZM143.357 80.312C143.357 79.856 143.609 79.352 144.113 78.8C144.641 78.224 145.121 77.936 145.553 77.936C146.009 77.936 146.501 78.212 147.029 78.764C147.557 79.316 147.821 79.832 147.821 80.312C147.821 80.768 147.557 81.272 147.029 81.824C146.501 82.376 146.009 82.652 145.553 82.652C145.145 82.652 144.677 82.376 144.149 81.824C143.621 81.272 143.357 80.768 143.357 80.312ZM147.173 100.832C147.173 101.648 147.533 102.056 148.253 102.056C148.853 102.056 149.453 101.804 150.053 101.3L150.737 102.236C150.113 102.932 149.441 103.484 148.721 103.892C148.001 104.3 147.329 104.504 146.705 104.504C145.721 104.504 145.013 104.204 144.581 103.604C144.149 103.004 143.933 102.032 143.933 100.688V89.528C143.933 89.24 143.873 89.036 143.753 88.916C143.657 88.796 143.477 88.736 143.213 88.736H141.629L141.305 87.8C142.001 87.176 142.793 86.66 143.681 86.252C144.569 85.844 145.361 85.64 146.057 85.64C146.393 85.64 146.669 85.748 146.885 85.964C147.101 86.18 147.209 86.456 147.209 86.792L147.173 100.832ZM165.696 100.688C164.712 102.08 163.704 103.064 162.672 103.64C161.64 104.216 160.524 104.504 159.324 104.504C158.172 104.504 157.104 104.18 156.12 103.532C155.136 102.86 154.344 101.864 153.744 100.544C153.168 99.224 152.88 97.628 152.88 95.756C152.88 93.692 153.252 91.904 153.996 90.392C154.764 88.856 155.844 87.68 157.236 86.864C158.652 86.048 160.308 85.64 162.204 85.64C163.14 85.64 164.46 85.796 166.164 86.108C167.604 86.348 168.684 86.492 169.404 86.54L169.8 87.008L169.368 87.656C169.2 87.896 169.08 88.124 169.008 88.34C168.936 88.532 168.9 88.772 168.9 89.06V100.832C168.9 101.576 169.26 101.948 169.98 101.948C170.58 101.948 171.18 101.732 171.78 101.3L172.464 102.236C171.84 102.932 171.168 103.484 170.448 103.892C169.728 104.3 169.068 104.504 168.468 104.504C167.484 104.504 166.776 104.204 166.344 103.604C165.912 103.004 165.696 102.032 165.696 100.688ZM156.66 95.072C156.66 97.352 157.044 99.032 157.812 100.112C158.604 101.192 159.588 101.732 160.764 101.732C161.724 101.732 162.624 101.468 163.464 100.94C164.304 100.388 165.048 99.56 165.696 98.456V88.736C164.592 87.992 163.416 87.62 162.168 87.62C160.416 87.62 159.06 88.28 158.1 89.6C157.14 90.896 156.66 92.72 156.66 95.072ZM179.754 100.832C179.754 101.648 180.114 102.056 180.834 102.056C181.434 102.056 182.034 101.804 182.634 101.3L183.318 102.236C182.694 102.932 182.022 103.484 181.302 103.892C180.582 104.3 179.91 104.504 179.286 104.504C178.302 104.504 177.594 104.204 177.162 103.604C176.73 103.004 176.514 102.032 176.514 100.688V79.736C176.514 79.448 176.454 79.244 176.334 79.124C176.238 79.004 176.058 78.944 175.794 78.944H174.21L173.886 78.008C174.582 77.384 175.374 76.868 176.262 76.46C177.15 76.052 177.942 75.848 178.638 75.848C178.974 75.848 179.25 75.956 179.466 76.172C179.682 76.388 179.79 76.664 179.79 77L179.754 100.832ZM195.384 95.072C195.384 93.152 195.732 91.484 196.428 90.068C197.148 88.652 198.168 87.56 199.488 86.792C200.832 86.024 202.392 85.64 204.168 85.64C205.944 85.64 207.492 86.024 208.812 86.792C210.132 87.56 211.152 88.652 211.872 90.068C212.592 91.484 212.952 93.152 212.952 95.072C212.952 96.968 212.592 98.636 211.872 100.076C211.152 101.492 210.132 102.584 208.812 103.352C207.492 104.12 205.944 104.504 204.168 104.504C202.392 104.504 200.832 104.12 199.488 103.352C198.168 102.584 197.148 101.492 196.428 100.076C195.732 98.636 195.384 96.968 195.384 95.072ZM209.172 95.18C209.172 94.052 209.016 92.9 208.704 91.724C208.392 90.548 207.864 89.552 207.12 88.736C206.4 87.92 205.452 87.512 204.276 87.512C203.268 87.512 202.368 87.836 201.576 88.484C200.808 89.108 200.208 89.996 199.776 91.148C199.344 92.3 199.128 93.62 199.128 95.108C199.128 97.388 199.572 99.2 200.46 100.544C201.348 101.888 202.548 102.56 204.06 102.56C205.044 102.56 205.92 102.26 206.688 101.66C207.48 101.036 208.092 100.172 208.524 99.068C208.956 97.94 209.172 96.644 209.172 95.18ZM218.5 86.108C218.5 82.916 219.064 80.408 220.192 78.584C221.32 76.76 222.988 75.848 225.196 75.848C226.756 75.848 228.04 76.22 229.048 76.964C230.056 77.708 230.56 78.668 230.56 79.844C230.56 80.876 230.224 81.728 229.552 82.4C228.904 83.048 228.064 83.372 227.032 83.372C226.576 83.372 226.348 83.24 226.348 82.976C226.348 82.904 226.432 82.736 226.6 82.472C226.768 82.208 226.912 81.884 227.032 81.5C227.152 81.116 227.212 80.624 227.212 80.024C227.212 79.256 226.996 78.644 226.564 78.188C226.132 77.708 225.544 77.468 224.8 77.468C223.744 77.468 222.964 77.996 222.46 79.052C221.98 80.084 221.74 81.524 221.74 83.372V86.108H226.78C226.78 86.612 226.708 87.068 226.564 87.476C226.42 87.884 226.216 88.184 225.952 88.376H221.74V104.468C221.74 106.964 221.188 108.932 220.084 110.372C219.004 111.836 217.396 112.568 215.26 112.568C213.964 112.568 212.896 112.232 212.056 111.56C211.216 110.912 210.796 110.024 210.796 108.896C210.796 107.984 211.132 107.216 211.804 106.592C212.476 105.968 213.316 105.656 214.324 105.656C214.78 105.656 215.008 105.788 215.008 106.052C215.008 106.124 214.912 106.28 214.72 106.52C214.528 106.784 214.36 107.072 214.216 107.384C214.072 107.72 214 108.14 214 108.644C214 109.388 214.192 109.964 214.576 110.372C214.936 110.804 215.404 111.02 215.98 111.02C216.7 111.02 217.3 110.696 217.78 110.048C218.26 109.424 218.5 108.488 218.5 107.24V88.376H215.332C215.332 87.728 215.38 87.308 215.476 87.116C215.572 86.924 215.812 86.78 216.196 86.684L218.5 86.108ZM230.524 86.108C230.524 82.916 231.088 80.408 232.216 78.584C233.344 76.76 235.012 75.848 237.22 75.848C238.78 75.848 240.064 76.22 241.072 76.964C242.08 77.708 242.584 78.668 242.584 79.844C242.584 80.876 242.248 81.728 241.576 82.4C240.928 83.048 240.088 83.372 239.056 83.372C238.6 83.372 238.372 83.24 238.372 82.976C238.372 82.904 238.456 82.736 238.624 82.472C238.792 82.208 238.936 81.884 239.056 81.5C239.176 81.116 239.236 80.624 239.236 80.024C239.236 79.256 239.02 78.644 238.588 78.188C238.156 77.708 237.568 77.468 236.824 77.468C235.768 77.468 234.988 77.996 234.484 79.052C234.004 80.084 233.764 81.524 233.764 83.372V86.108H238.804C238.804 86.612 238.732 87.068 238.588 87.476C238.444 87.884 238.24 88.184 237.976 88.376H233.764V104.468C233.764 106.964 233.212 108.932 232.108 110.372C231.028 111.836 229.42 112.568 227.284 112.568C225.988 112.568 224.92 112.232 224.08 111.56C223.24 110.912 222.82 110.024 222.82 108.896C222.82 107.984 223.156 107.216 223.828 106.592C224.5 105.968 225.34 105.656 226.348 105.656C226.804 105.656 227.032 105.788 227.032 106.052C227.032 106.124 226.936 106.28 226.744 106.52C226.552 106.784 226.384 107.072 226.24 107.384C226.096 107.72 226.024 108.14 226.024 108.644C226.024 109.388 226.216 109.964 226.6 110.372C226.96 110.804 227.428 111.02 228.004 111.02C228.724 111.02 229.324 110.696 229.804 110.048C230.284 109.424 230.524 108.488 230.524 107.24V88.376H227.356C227.356 87.728 227.404 87.308 227.5 87.116C227.596 86.924 227.836 86.78 228.22 86.684L230.524 86.108ZM255.651 101.3C254.763 102.332 253.707 103.124 252.483 103.676C251.259 104.228 249.939 104.504 248.523 104.504C246.867 104.504 245.415 104.12 244.167 103.352C242.919 102.584 241.947 101.504 241.251 100.112C240.579 98.72 240.243 97.112 240.243 95.288C240.243 93.368 240.627 91.688 241.395 90.248C242.163 88.784 243.243 87.656 244.635 86.864C246.051 86.048 247.695 85.64 249.567 85.64C250.887 85.64 252.003 85.892 252.915 86.396C253.851 86.876 254.547 87.524 255.003 88.34C255.459 89.132 255.687 89.996 255.687 90.932C255.687 91.94 255.411 92.912 254.859 93.848C254.331 94.784 253.551 95.552 252.519 96.152C251.487 96.728 250.251 97.016 248.811 97.016C248.043 97.016 247.191 96.872 246.255 96.584C245.319 96.296 244.851 95.876 244.851 95.324C244.851 95.132 244.899 94.952 244.995 94.784C245.115 94.616 245.247 94.532 245.391 94.532C245.463 94.532 245.703 94.616 246.111 94.784C246.519 94.928 247.047 95 247.695 95C249.135 95 250.251 94.592 251.043 93.776C251.859 92.96 252.267 92 252.267 90.896C252.267 89.96 251.967 89.156 251.367 88.484C250.767 87.788 249.927 87.44 248.847 87.44C247.311 87.44 246.111 88.124 245.247 89.492C244.383 90.836 243.951 92.768 243.951 95.288C243.951 97.424 244.407 99.104 245.319 100.328C246.231 101.528 247.551 102.128 249.279 102.128C251.391 102.128 253.143 101.444 254.535 100.076C254.631 99.98 254.739 99.932 254.859 99.932C255.051 99.932 255.255 100.052 255.471 100.292C255.687 100.508 255.795 100.736 255.795 100.976C255.795 101.096 255.747 101.204 255.651 101.3ZM265.238 91.004C265.646 89.396 266.27 88.1 267.11 87.116C267.974 86.132 268.91 85.64 269.918 85.64C270.926 85.64 271.754 85.976 272.402 86.648C273.074 87.296 273.41 88.184 273.41 89.312C273.41 90.224 273.074 90.992 272.402 91.616C271.73 92.24 270.89 92.552 269.882 92.552C269.426 92.552 269.198 92.42 269.198 92.156C269.198 92.084 269.294 91.904 269.486 91.616C269.702 91.328 269.87 91.028 269.99 90.716C270.134 90.404 270.206 90.056 270.206 89.672C270.206 89.24 270.086 88.904 269.846 88.664C269.63 88.4 269.354 88.268 269.018 88.268C268.442 88.268 267.842 88.616 267.218 89.312C266.618 89.984 266.102 91.088 265.67 92.624C265.238 94.136 265.022 96.056 265.022 98.384C265.022 99.464 265.106 100.34 265.274 101.012C265.442 101.66 265.742 102.284 266.174 102.884L266.606 103.46L266.174 104H259.874L259.478 102.884L260.234 102.704C260.834 102.56 261.23 102.308 261.422 101.948C261.638 101.564 261.746 100.916 261.746 100.004V89.888C261.746 89.6 261.686 89.396 261.566 89.276C261.47 89.156 261.29 89.096 261.026 89.096H259.442L259.118 88.16C259.814 87.536 260.606 87.02 261.494 86.612C262.406 86.204 263.198 86 263.87 86C264.206 86 264.482 86.108 264.698 86.324C264.914 86.54 265.022 86.816 265.022 87.152V91.004H265.238ZM274.689 100.148C275.433 99.86 276.105 99.716 276.705 99.716C277.401 99.716 277.965 99.908 278.397 100.292C278.829 100.676 279.045 101.288 279.045 102.128C279.045 102.8 278.793 103.496 278.289 104.216C277.809 104.96 277.077 105.86 276.093 106.916L274.689 108.428L273.645 107.744L275.301 104.504C275.589 103.928 275.733 103.436 275.733 103.028C275.733 102.548 275.457 102.104 274.905 101.696L274.257 101.264L274.077 100.4L274.689 100.148ZM300.853 112.136C302.341 112.136 303.433 111.524 304.129 110.3C304.825 109.076 305.173 107.432 305.173 105.368V99.644C304.189 101.036 303.181 102.02 302.149 102.596C301.117 103.172 300.001 103.46 298.801 103.46C297.649 103.46 296.581 103.172 295.597 102.596C294.613 101.996 293.821 101.12 293.221 99.968C292.645 98.816 292.357 97.412 292.357 95.756C292.357 93.692 292.729 91.904 293.473 90.392C294.241 88.856 295.321 87.68 296.713 86.864C298.129 86.048 299.785 85.64 301.681 85.64C302.617 85.64 303.937 85.796 305.641 86.108C307.081 86.348 308.161 86.492 308.881 86.54L309.277 87.008L308.845 87.656C308.677 87.896 308.557 88.124 308.485 88.34C308.413 88.532 308.377 88.772 308.377 89.06V104.792C308.377 107.744 307.657 110.012 306.217 111.596C304.801 113.204 302.857 114.008 300.385 114.008C299.065 114.008 297.937 113.756 297.001 113.252C296.065 112.772 295.369 112.136 294.913 111.344C294.457 110.576 294.229 109.748 294.229 108.86C294.229 107.66 294.637 106.628 295.453 105.764C296.269 104.924 297.385 104.504 298.801 104.504C299.041 104.504 299.209 104.54 299.305 104.612C299.425 104.708 299.485 104.804 299.485 104.9C299.485 104.996 299.317 105.224 298.981 105.584C298.645 105.944 298.345 106.376 298.081 106.88C297.841 107.384 297.721 108.02 297.721 108.788C297.721 109.748 297.997 110.54 298.549 111.164C299.125 111.812 299.893 112.136 300.853 112.136ZM296.137 95.072C296.137 96.992 296.521 98.408 297.289 99.32C298.081 100.232 299.065 100.688 300.241 100.688C301.201 100.688 302.101 100.424 302.941 99.896C303.781 99.344 304.525 98.516 305.173 97.412V88.736C304.069 87.992 302.893 87.62 301.645 87.62C299.893 87.62 298.537 88.28 297.577 89.6C296.617 90.896 296.137 92.72 296.137 95.072ZM328.882 101.3C327.994 102.332 326.938 103.124 325.714 103.676C324.49 104.228 323.17 104.504 321.754 104.504C320.098 104.504 318.646 104.12 317.398 103.352C316.15 102.584 315.178 101.504 314.482 100.112C313.81 98.72 313.474 97.112 313.474 95.288C313.474 93.368 313.858 91.688 314.626 90.248C315.394 88.784 316.474 87.656 317.866 86.864C319.282 86.048 320.926 85.64 322.798 85.64C324.118 85.64 325.234 85.892 326.146 86.396C327.082 86.876 327.778 87.524 328.234 88.34C328.69 89.132 328.918 89.996 328.918 90.932C328.918 91.94 328.642 92.912 328.09 93.848C327.562 94.784 326.782 95.552 325.75 96.152C324.718 96.728 323.482 97.016 322.042 97.016C321.274 97.016 320.422 96.872 319.486 96.584C318.55 96.296 318.082 95.876 318.082 95.324C318.082 95.132 318.13 94.952 318.226 94.784C318.346 94.616 318.478 94.532 318.622 94.532C318.694 94.532 318.934 94.616 319.342 94.784C319.75 94.928 320.278 95 320.926 95C322.366 95 323.482 94.592 324.274 93.776C325.09 92.96 325.498 92 325.498 90.896C325.498 89.96 325.198 89.156 324.598 88.484C323.998 87.788 323.158 87.44 322.078 87.44C320.542 87.44 319.342 88.124 318.478 89.492C317.614 90.836 317.182 92.768 317.182 95.288C317.182 97.424 317.638 99.104 318.55 100.328C319.462 101.528 320.782 102.128 322.51 102.128C324.622 102.128 326.374 101.444 327.766 100.076C327.862 99.98 327.97 99.932 328.09 99.932C328.282 99.932 328.486 100.052 328.702 100.292C328.918 100.508 329.026 100.736 329.026 100.976C329.026 101.096 328.978 101.204 328.882 101.3ZM342.428 86.108C342.428 86.612 342.356 87.068 342.212 87.476C342.068 87.884 341.864 88.184 341.6 88.376H337.748V99.968C337.748 100.712 337.856 101.24 338.072 101.552C338.288 101.864 338.636 102.02 339.116 102.02C339.836 102.02 340.652 101.636 341.564 100.868L342.248 101.804C341.624 102.62 340.88 103.28 340.016 103.784C339.152 104.264 338.336 104.504 337.568 104.504C336.584 104.504 335.816 104.204 335.264 103.604C334.736 102.98 334.472 102.128 334.472 101.048V88.376H331.304C331.304 87.728 331.352 87.308 331.448 87.116C331.544 86.924 331.784 86.78 332.168 86.684C333.44 86.348 334.34 85.808 334.868 85.064C335.42 84.296 335.816 83.312 336.056 82.112C336.128 81.728 336.248 81.488 336.416 81.392C336.608 81.296 337.052 81.248 337.748 81.248V86.108H342.428ZM363.568 114.008C362.248 114.008 361.12 113.756 360.184 113.252C359.248 112.772 358.552 112.136 358.096 111.344C357.64 110.576 357.412 109.748 357.412 108.86C357.412 107.66 357.82 106.628 358.636 105.764C359.452 104.924 360.568 104.504 361.984 104.504C362.224 104.504 362.392 104.54 362.488 104.612C362.608 104.708 362.668 104.804 362.668 104.9C362.668 104.996 362.5 105.224 362.164 105.584C361.828 105.944 361.528 106.376 361.264 106.88C361.024 107.384 360.904 108.02 360.904 108.788C360.904 109.748 361.18 110.54 361.732 111.164C362.308 111.812 363.076 112.136 364.036 112.136C365.524 112.136 366.616 111.524 367.312 110.3C368.008 109.076 368.356 107.432 368.356 105.368V100.04C367.804 101.096 366.976 101.936 365.872 102.56C364.768 103.16 363.556 103.46 362.236 103.46C360.532 103.46 359.2 102.944 358.24 101.912C357.28 100.856 356.8 99.38 356.8 97.484V89.492C356.8 89.204 356.74 89 356.62 88.88C356.524 88.76 356.344 88.7 356.08 88.7H354.496L354.172 87.764C354.796 87.14 355.552 86.624 356.44 86.216C357.352 85.808 358.18 85.604 358.924 85.604C359.26 85.604 359.536 85.712 359.752 85.928C359.968 86.144 360.076 86.42 360.076 86.756V96.656C360.076 98.096 360.364 99.188 360.94 99.932C361.516 100.676 362.356 101.048 363.46 101.048C365.068 101.048 366.316 100.448 367.204 99.248C368.116 98.024 368.572 96.344 368.572 94.208C368.572 92.24 368.488 90.776 368.32 89.816C368.152 88.856 367.768 87.98 367.168 87.188L366.736 86.612L367.168 86.072L371.56 85.604V104.792C371.56 107.744 370.84 110.012 369.4 111.596C367.984 113.204 366.04 114.008 363.568 114.008ZM376.684 95.072C376.684 93.152 377.032 91.484 377.728 90.068C378.448 88.652 379.468 87.56 380.788 86.792C382.132 86.024 383.692 85.64 385.468 85.64C387.244 85.64 388.792 86.024 390.112 86.792C391.432 87.56 392.452 88.652 393.172 90.068C393.892 91.484 394.252 93.152 394.252 95.072C394.252 96.968 393.892 98.636 393.172 100.076C392.452 101.492 391.432 102.584 390.112 103.352C388.792 104.12 387.244 104.504 385.468 104.504C383.692 104.504 382.132 104.12 380.788 103.352C379.468 102.584 378.448 101.492 377.728 100.076C377.032 98.636 376.684 96.968 376.684 95.072ZM390.472 95.18C390.472 94.052 390.316 92.9 390.004 91.724C389.692 90.548 389.164 89.552 388.42 88.736C387.7 87.92 386.752 87.512 385.576 87.512C384.568 87.512 383.668 87.836 382.876 88.484C382.108 89.108 381.508 89.996 381.076 91.148C380.644 92.3 380.428 93.62 380.428 95.108C380.428 97.388 380.872 99.2 381.76 100.544C382.648 101.888 383.848 102.56 385.36 102.56C386.344 102.56 387.22 102.26 387.988 101.66C388.78 101.036 389.392 100.172 389.824 99.068C390.256 97.94 390.472 96.644 390.472 95.18ZM414.417 100.832C414.417 101.576 414.765 101.948 415.461 101.948C416.013 101.948 416.601 101.732 417.225 101.3L417.909 102.236C417.357 102.908 416.709 103.46 415.965 103.892C415.245 104.3 414.573 104.504 413.949 104.504C412.989 104.504 412.281 104.228 411.825 103.676C411.393 103.124 411.177 102.248 411.177 101.048C410.625 102.104 409.797 102.944 408.693 103.568C407.613 104.192 406.413 104.504 405.093 104.504C403.365 104.504 402.009 103.988 401.025 102.956C400.065 101.9 399.585 100.424 399.585 98.528V89.528C399.585 89 399.345 88.736 398.865 88.736H397.281L396.957 87.8C397.581 87.176 398.337 86.66 399.225 86.252C400.137 85.844 400.965 85.64 401.709 85.64C402.045 85.64 402.321 85.748 402.537 85.964C402.753 86.18 402.861 86.456 402.861 86.792V97.7C402.861 99.14 403.149 100.232 403.725 100.976C404.325 101.72 405.189 102.092 406.317 102.092C407.925 102.092 409.173 101.396 410.061 100.004C410.973 98.612 411.429 96.692 411.429 94.244C411.429 92.468 411.321 91.088 411.105 90.104C410.913 89.096 410.553 88.136 410.025 87.224L409.593 86.648L410.025 86.108L414.417 85.64V100.832ZM426.183 91.004C426.591 89.396 427.215 88.1 428.055 87.116C428.919 86.132 429.855 85.64 430.863 85.64C431.871 85.64 432.699 85.976 433.347 86.648C434.019 87.296 434.355 88.184 434.355 89.312C434.355 90.224 434.019 90.992 433.347 91.616C432.675 92.24 431.835 92.552 430.827 92.552C430.371 92.552 430.143 92.42 430.143 92.156C430.143 92.084 430.239 91.904 430.431 91.616C430.647 91.328 430.815 91.028 430.935 90.716C431.079 90.404 431.151 90.056 431.151 89.672C431.151 89.24 431.031 88.904 430.791 88.664C430.575 88.4 430.299 88.268 429.963 88.268C429.387 88.268 428.787 88.616 428.163 89.312C427.563 89.984 427.047 91.088 426.615 92.624C426.183 94.136 425.967 96.056 425.967 98.384C425.967 99.464 426.051 100.34 426.219 101.012C426.387 101.66 426.687 102.284 427.119 102.884L427.551 103.46L427.119 104H420.819L420.423 102.884L421.179 102.704C421.779 102.56 422.175 102.308 422.367 101.948C422.583 101.564 422.691 100.916 422.691 100.004V89.888C422.691 89.6 422.631 89.396 422.511 89.276C422.415 89.156 422.235 89.096 421.971 89.096H420.387L420.063 88.16C420.759 87.536 421.551 87.02 422.439 86.612C423.351 86.204 424.143 86 424.815 86C425.151 86 425.427 86.108 425.643 86.324C425.859 86.54 425.967 86.816 425.967 87.152V91.004H426.183ZM42.2647 148.164C43.0327 148.164 43.7167 147.756 44.3167 146.94C44.9167 146.1 45.3727 145.008 45.6847 143.664C46.0207 142.296 46.1887 140.868 46.1887 139.38C46.1887 138.228 46.0567 137.112 45.7927 136.032C45.5287 134.952 45.1327 133.992 44.6047 133.152L44.2447 132.576L44.6767 132.108L48.8887 131.64C49.0087 133.128 49.0687 134.4 49.0687 135.456C49.0687 136.56 49.0087 137.736 48.8887 138.984L49.6447 144.024C49.8607 145.512 50.1847 146.58 50.6167 147.228C51.0487 147.852 51.6847 148.164 52.5247 148.164C53.2927 148.164 53.9767 147.756 54.5767 146.94C55.1767 146.1 55.6327 145.008 55.9447 143.664C56.2807 142.296 56.4487 140.868 56.4487 139.38C56.4487 138.228 56.3167 137.112 56.0527 136.032C55.7887 134.952 55.3927 133.992 54.8647 133.152L54.5047 132.576L54.9367 132.108L59.1487 131.64C59.2687 133.128 59.3287 134.4 59.3287 135.456C59.3287 138.648 59.0047 141.384 58.3567 143.664C57.7087 145.92 56.8447 147.624 55.7647 148.776C54.6847 149.928 53.5207 150.504 52.2727 150.504C50.8807 150.504 49.7887 150.168 48.9967 149.496C48.2287 148.8 47.6287 147.624 47.1967 145.968C46.5487 147.456 45.7567 148.584 44.8207 149.352C43.9087 150.12 42.9247 150.504 41.8687 150.504C40.6207 150.504 39.6127 150.276 38.8447 149.82C38.1007 149.34 37.5007 148.584 37.0447 147.552C36.5887 146.496 36.2287 145.032 35.9647 143.16L34.8487 135.528C34.8007 135.216 34.7287 135.012 34.6327 134.916C34.5367 134.796 34.3687 134.736 34.1287 134.736H32.5447L32.2207 133.8C32.8447 133.176 33.5887 132.66 34.4527 132.252C35.3167 131.844 36.0847 131.64 36.7567 131.64C37.4047 131.64 37.7887 132.024 37.9087 132.792L39.5287 144.024C39.7447 145.512 40.0567 146.58 40.4647 147.228C40.8727 147.852 41.4727 148.164 42.2647 148.164ZM64.8179 126.312C64.8179 125.856 65.0699 125.352 65.5739 124.8C66.1019 124.224 66.5819 123.936 67.0139 123.936C67.4699 123.936 67.9619 124.212 68.4899 124.764C69.0179 125.316 69.2819 125.832 69.2819 126.312C69.2819 126.768 69.0179 127.272 68.4899 127.824C67.9619 128.376 67.4699 128.652 67.0139 128.652C66.6059 128.652 66.1379 128.376 65.6099 127.824C65.0819 127.272 64.8179 126.768 64.8179 126.312ZM68.6339 146.832C68.6339 147.648 68.9939 148.056 69.7139 148.056C70.3139 148.056 70.9139 147.804 71.5139 147.3L72.1979 148.236C71.5739 148.932 70.9019 149.484 70.1819 149.892C69.4619 150.3 68.7899 150.504 68.1659 150.504C67.1819 150.504 66.4739 150.204 66.0419 149.604C65.6099 149.004 65.3939 148.032 65.3939 146.688V135.528C65.3939 135.24 65.3339 135.036 65.2139 134.916C65.1179 134.796 64.9379 134.736 64.6739 134.736H63.0899L62.7659 133.8C63.4619 133.176 64.2539 132.66 65.1419 132.252C66.0299 131.844 66.8219 131.64 67.5179 131.64C67.8539 131.64 68.1299 131.748 68.3459 131.964C68.5619 132.18 68.6699 132.456 68.6699 132.792L68.6339 146.832ZM84.2407 132.108C84.2407 132.612 84.1687 133.068 84.0247 133.476C83.8807 133.884 83.6767 134.184 83.4127 134.376H79.5607V145.968C79.5607 146.712 79.6687 147.24 79.8847 147.552C80.1007 147.864 80.4487 148.02 80.9287 148.02C81.6487 148.02 82.4647 147.636 83.3767 146.868L84.0607 147.804C83.4367 148.62 82.6927 149.28 81.8287 149.784C80.9647 150.264 80.1487 150.504 79.3807 150.504C78.3967 150.504 77.6287 150.204 77.0767 149.604C76.5487 148.98 76.2847 148.128 76.2847 147.048V134.376H73.1167C73.1167 133.728 73.1647 133.308 73.2607 133.116C73.3567 132.924 73.5967 132.78 73.9807 132.684C75.2527 132.348 76.1527 131.808 76.6807 131.064C77.2327 130.296 77.6287 129.312 77.8687 128.112C77.9407 127.728 78.0607 127.488 78.2287 127.392C78.4207 127.296 78.8647 127.248 79.5607 127.248V132.108H84.2407ZM88.8782 125.736C88.8782 125.448 88.8182 125.244 88.6982 125.124C88.6022 125.004 88.4222 124.944 88.1582 124.944H86.5742L86.2502 124.008C86.9462 123.384 87.7382 122.868 88.6262 122.46C89.5382 122.052 90.3302 121.848 91.0022 121.848C91.3382 121.848 91.6142 121.956 91.8302 122.172C92.0462 122.388 92.1542 122.664 92.1542 123V137.004C92.7782 135.444 93.7142 134.16 94.9622 133.152C96.2102 132.144 97.5182 131.64 98.8862 131.64C100.638 131.64 101.874 132.156 102.594 133.188C103.338 134.22 103.71 135.888 103.71 138.192V146.904C103.71 147.72 104.07 148.128 104.79 148.128C105.39 148.128 105.99 147.876 106.59 147.372L107.274 148.308C106.65 149.004 105.978 149.556 105.258 149.964C104.538 150.372 103.866 150.576 103.242 150.576C102.258 150.576 101.55 150.276 101.118 149.676C100.686 149.076 100.47 148.104 100.47 146.76V138.192C100.47 136.92 100.23 135.984 99.7502 135.384C99.2942 134.76 98.5022 134.448 97.3742 134.448C96.3422 134.448 95.4302 134.856 94.6382 135.672C93.8702 136.488 93.2582 137.64 92.8022 139.128C92.3702 140.616 92.1542 142.32 92.1542 144.24C92.1542 145.368 92.2382 146.268 92.4062 146.94C92.5742 147.612 92.8742 148.26 93.3062 148.884L93.7382 149.46L93.3062 150H87.0062L86.6102 148.884L87.3662 148.704C87.9662 148.56 88.3622 148.308 88.5542 147.948C88.7702 147.564 88.8782 146.916 88.8782 146.004V125.736ZM128.372 160.008C127.052 160.008 125.924 159.756 124.988 159.252C124.052 158.772 123.356 158.136 122.9 157.344C122.444 156.576 122.216 155.748 122.216 154.86C122.216 153.66 122.624 152.628 123.44 151.764C124.256 150.924 125.372 150.504 126.788 150.504C127.028 150.504 127.196 150.54 127.292 150.612C127.412 150.708 127.472 150.804 127.472 150.9C127.472 150.996 127.304 151.224 126.968 151.584C126.632 151.944 126.332 152.376 126.068 152.88C125.828 153.384 125.708 154.02 125.708 154.788C125.708 155.748 125.984 156.54 126.536 157.164C127.112 157.812 127.88 158.136 128.84 158.136C130.328 158.136 131.42 157.524 132.116 156.3C132.812 155.076 133.16 153.432 133.16 151.368V146.04C132.608 147.096 131.78 147.936 130.676 148.56C129.572 149.16 128.36 149.46 127.04 149.46C125.336 149.46 124.004 148.944 123.044 147.912C122.084 146.856 121.604 145.38 121.604 143.484V135.492C121.604 135.204 121.544 135 121.424 134.88C121.328 134.76 121.148 134.7 120.884 134.7H119.3L118.976 133.764C119.6 133.14 120.356 132.624 121.244 132.216C122.156 131.808 122.984 131.604 123.728 131.604C124.064 131.604 124.34 131.712 124.556 131.928C124.772 132.144 124.88 132.42 124.88 132.756V142.656C124.88 144.096 125.168 145.188 125.744 145.932C126.32 146.676 127.16 147.048 128.264 147.048C129.872 147.048 131.12 146.448 132.008 145.248C132.92 144.024 133.376 142.344 133.376 140.208C133.376 138.24 133.292 136.776 133.124 135.816C132.956 134.856 132.572 133.98 131.972 133.188L131.54 132.612L131.972 132.072L136.364 131.604V150.792C136.364 153.744 135.644 156.012 134.204 157.596C132.788 159.204 130.844 160.008 128.372 160.008ZM141.489 141.072C141.489 139.152 141.837 137.484 142.533 136.068C143.253 134.652 144.273 133.56 145.593 132.792C146.937 132.024 148.497 131.64 150.273 131.64C152.049 131.64 153.597 132.024 154.917 132.792C156.237 133.56 157.257 134.652 157.977 136.068C158.697 137.484 159.057 139.152 159.057 141.072C159.057 142.968 158.697 144.636 157.977 146.076C157.257 147.492 156.237 148.584 154.917 149.352C153.597 150.12 152.049 150.504 150.273 150.504C148.497 150.504 146.937 150.12 145.593 149.352C144.273 148.584 143.253 147.492 142.533 146.076C141.837 144.636 141.489 142.968 141.489 141.072ZM155.277 141.18C155.277 140.052 155.121 138.9 154.809 137.724C154.497 136.548 153.969 135.552 153.225 134.736C152.505 133.92 151.557 133.512 150.381 133.512C149.373 133.512 148.473 133.836 147.681 134.484C146.913 135.108 146.313 135.996 145.881 137.148C145.449 138.3 145.233 139.62 145.233 141.108C145.233 143.388 145.677 145.2 146.565 146.544C147.453 147.888 148.653 148.56 150.165 148.56C151.149 148.56 152.025 148.26 152.793 147.66C153.585 147.036 154.197 146.172 154.629 145.068C155.061 143.94 155.277 142.644 155.277 141.18ZM179.222 146.832C179.222 147.576 179.57 147.948 180.266 147.948C180.818 147.948 181.406 147.732 182.03 147.3L182.714 148.236C182.162 148.908 181.514 149.46 180.77 149.892C180.05 150.3 179.378 150.504 178.754 150.504C177.794 150.504 177.086 150.228 176.63 149.676C176.198 149.124 175.982 148.248 175.982 147.048C175.43 148.104 174.602 148.944 173.498 149.568C172.418 150.192 171.218 150.504 169.898 150.504C168.17 150.504 166.814 149.988 165.83 148.956C164.87 147.9 164.39 146.424 164.39 144.528V135.528C164.39 135 164.15 134.736 163.67 134.736H162.086L161.762 133.8C162.386 133.176 163.142 132.66 164.03 132.252C164.942 131.844 165.77 131.64 166.514 131.64C166.85 131.64 167.126 131.748 167.342 131.964C167.558 132.18 167.666 132.456 167.666 132.792V143.7C167.666 145.14 167.954 146.232 168.53 146.976C169.13 147.72 169.994 148.092 171.122 148.092C172.73 148.092 173.978 147.396 174.866 146.004C175.778 144.612 176.234 142.692 176.234 140.244C176.234 138.468 176.126 137.088 175.91 136.104C175.718 135.096 175.358 134.136 174.83 133.224L174.398 132.648L174.83 132.108L179.222 131.64V146.832ZM190.988 137.004C191.396 135.396 192.02 134.1 192.86 133.116C193.724 132.132 194.66 131.64 195.668 131.64C196.676 131.64 197.504 131.976 198.152 132.648C198.824 133.296 199.16 134.184 199.16 135.312C199.16 136.224 198.824 136.992 198.152 137.616C197.48 138.24 196.64 138.552 195.632 138.552C195.176 138.552 194.948 138.42 194.948 138.156C194.948 138.084 195.044 137.904 195.236 137.616C195.452 137.328 195.62 137.028 195.74 136.716C195.884 136.404 195.956 136.056 195.956 135.672C195.956 135.24 195.836 134.904 195.596 134.664C195.38 134.4 195.104 134.268 194.768 134.268C194.192 134.268 193.592 134.616 192.968 135.312C192.368 135.984 191.852 137.088 191.42 138.624C190.988 140.136 190.772 142.056 190.772 144.384C190.772 145.464 190.856 146.34 191.024 147.012C191.192 147.66 191.492 148.284 191.924 148.884L192.356 149.46L191.924 150H185.624L185.228 148.884L185.984 148.704C186.584 148.56 186.98 148.308 187.172 147.948C187.388 147.564 187.496 146.916 187.496 146.004V135.888C187.496 135.6 187.436 135.396 187.316 135.276C187.22 135.156 187.04 135.096 186.776 135.096H185.192L184.868 134.16C185.564 133.536 186.356 133.02 187.244 132.612C188.156 132.204 188.948 132 189.62 132C189.956 132 190.232 132.108 190.448 132.324C190.664 132.54 190.772 132.816 190.772 133.152V137.004H190.988ZM216.401 144.24C216.401 145.368 216.485 146.268 216.653 146.94C216.821 147.612 217.121 148.26 217.553 148.884L217.985 149.46L217.553 150H211.253L210.857 148.884L211.613 148.704C212.213 148.56 212.609 148.308 212.801 147.948C213.017 147.564 213.125 146.916 213.125 146.004V135.888C213.125 135.6 213.065 135.396 212.945 135.276C212.849 135.156 212.669 135.096 212.405 135.096H210.821L210.497 134.16C211.193 133.536 211.985 133.02 212.873 132.612C213.785 132.204 214.577 132 215.249 132C215.585 132 215.861 132.108 216.077 132.324C216.293 132.54 216.401 132.816 216.401 133.152V137.004C217.025 135.42 217.937 134.136 219.137 133.152C220.337 132.144 221.597 131.64 222.917 131.64C224.381 131.64 225.485 132.072 226.229 132.936C226.973 133.8 227.405 135.156 227.525 137.004C228.149 135.42 229.061 134.136 230.261 133.152C231.461 132.144 232.721 131.64 234.041 131.64C235.649 131.64 236.813 132.156 237.533 133.188C238.277 134.22 238.649 135.864 238.649 138.12V146.832C238.649 147.648 239.009 148.056 239.729 148.056C240.281 148.056 240.881 147.804 241.529 147.3L242.213 148.236C241.589 148.932 240.917 149.484 240.197 149.892C239.477 150.3 238.805 150.504 238.181 150.504C237.197 150.504 236.489 150.204 236.057 149.604C235.625 149.004 235.409 148.032 235.409 146.688V138.12C235.409 135.672 234.521 134.448 232.745 134.448C231.737 134.448 230.849 134.844 230.081 135.636C229.313 136.404 228.701 137.496 228.245 138.912C227.789 140.328 227.549 141.96 227.525 143.808V144.24C227.525 145.488 227.621 146.484 227.813 147.228C228.029 147.948 228.461 148.692 229.109 149.46L228.677 150H224.285V138.12C224.285 135.672 223.397 134.448 221.621 134.448C220.589 134.448 219.677 134.856 218.885 135.672C218.117 136.488 217.505 137.64 217.049 139.128C216.617 140.616 216.401 142.32 216.401 144.24ZM261.487 146.832C261.487 147.576 261.835 147.948 262.531 147.948C263.083 147.948 263.671 147.732 264.295 147.3L264.979 148.236C264.427 148.908 263.779 149.46 263.035 149.892C262.315 150.3 261.643 150.504 261.019 150.504C260.059 150.504 259.351 150.228 258.895 149.676C258.463 149.124 258.247 148.248 258.247 147.048C257.695 148.104 256.867 148.944 255.763 149.568C254.683 150.192 253.483 150.504 252.163 150.504C250.435 150.504 249.079 149.988 248.095 148.956C247.135 147.9 246.655 146.424 246.655 144.528V135.528C246.655 135 246.415 134.736 245.935 134.736H244.351L244.027 133.8C244.651 133.176 245.407 132.66 246.295 132.252C247.207 131.844 248.035 131.64 248.779 131.64C249.115 131.64 249.391 131.748 249.607 131.964C249.823 132.18 249.931 132.456 249.931 132.792V143.7C249.931 145.14 250.219 146.232 250.795 146.976C251.395 147.72 252.259 148.092 253.387 148.092C254.995 148.092 256.243 147.396 257.131 146.004C258.043 144.612 258.499 142.692 258.499 140.244C258.499 138.468 258.391 137.088 258.175 136.104C257.983 135.096 257.623 134.136 257.095 133.224L256.663 132.648L257.095 132.108L261.487 131.64V146.832ZM274.369 148.74C275.353 148.74 276.157 148.476 276.781 147.948C277.429 147.396 277.753 146.688 277.753 145.824C277.753 145.056 277.417 144.432 276.745 143.952C276.097 143.472 275.125 142.956 273.829 142.404C272.653 141.924 271.669 141.456 270.877 141C270.109 140.544 269.449 139.956 268.897 139.236C268.345 138.492 268.069 137.58 268.069 136.5C268.069 135.06 268.681 133.896 269.905 133.008C271.153 132.096 272.725 131.64 274.621 131.64C276.325 131.64 277.741 131.976 278.869 132.648C279.997 133.32 280.561 134.22 280.561 135.348C280.561 136.26 280.273 137.016 279.697 137.616C279.145 138.192 278.425 138.48 277.537 138.48C277.033 138.48 276.781 138.324 276.781 138.012C276.781 137.916 276.865 137.676 277.033 137.292C277.225 136.884 277.321 136.452 277.321 135.996C277.321 135.108 277.021 134.448 276.421 134.016C275.821 133.584 275.137 133.368 274.369 133.368C273.385 133.368 272.605 133.62 272.029 134.124C271.477 134.604 271.201 135.228 271.201 135.996C271.201 136.884 271.549 137.604 272.245 138.156C272.965 138.684 274.021 139.236 275.413 139.812C276.565 140.292 277.525 140.748 278.293 141.18C279.061 141.588 279.709 142.116 280.237 142.764C280.765 143.412 281.029 144.192 281.029 145.104C281.029 146.736 280.381 148.044 279.085 149.028C277.789 150.012 276.061 150.504 273.901 150.504C272.077 150.504 270.577 150.096 269.401 149.28C268.225 148.464 267.637 147.372 267.637 146.004C267.637 145.188 267.913 144.516 268.465 143.988C269.017 143.46 269.737 143.196 270.625 143.196C271.129 143.196 271.381 143.34 271.381 143.628C271.381 143.7 271.309 143.928 271.165 144.312C271.021 144.672 270.949 145.116 270.949 145.644C270.949 146.652 271.297 147.42 271.993 147.948C272.713 148.476 273.505 148.74 274.369 148.74ZM300.053 147.3C299.165 148.332 298.109 149.124 296.885 149.676C295.661 150.228 294.341 150.504 292.925 150.504C291.269 150.504 289.817 150.12 288.569 149.352C287.321 148.584 286.349 147.504 285.653 146.112C284.981 144.72 284.645 143.112 284.645 141.288C284.645 139.368 285.029 137.688 285.797 136.248C286.565 134.784 287.645 133.656 289.037 132.864C290.453 132.048 292.097 131.64 293.969 131.64C295.289 131.64 296.405 131.892 297.317 132.396C298.253 132.876 298.949 133.524 299.405 134.34C299.861 135.132 300.089 135.996 300.089 136.932C300.089 137.94 299.813 138.912 299.261 139.848C298.733 140.784 297.953 141.552 296.921 142.152C295.889 142.728 294.653 143.016 293.213 143.016C292.445 143.016 291.593 142.872 290.657 142.584C289.721 142.296 289.253 141.876 289.253 141.324C289.253 141.132 289.301 140.952 289.397 140.784C289.517 140.616 289.649 140.532 289.793 140.532C289.865 140.532 290.105 140.616 290.513 140.784C290.921 140.928 291.449 141 292.097 141C293.537 141 294.653 140.592 295.445 139.776C296.261 138.96 296.669 138 296.669 136.896C296.669 135.96 296.369 135.156 295.769 134.484C295.169 133.788 294.329 133.44 293.249 133.44C291.713 133.44 290.513 134.124 289.649 135.492C288.785 136.836 288.353 138.768 288.353 141.288C288.353 143.424 288.809 145.104 289.721 146.328C290.633 147.528 291.953 148.128 293.681 148.128C295.793 148.128 297.545 147.444 298.937 146.076C299.033 145.98 299.141 145.932 299.261 145.932C299.453 145.932 299.657 146.052 299.873 146.292C300.089 146.508 300.197 146.736 300.197 146.976C300.197 147.096 300.149 147.204 300.053 147.3ZM320.62 146.832C320.62 147.576 320.968 147.948 321.664 147.948C322.216 147.948 322.804 147.732 323.428 147.3L324.112 148.236C323.56 148.908 322.912 149.46 322.168 149.892C321.448 150.3 320.776 150.504 320.152 150.504C319.192 150.504 318.484 150.228 318.028 149.676C317.596 149.124 317.38 148.248 317.38 147.048C316.828 148.104 316 148.944 314.896 149.568C313.816 150.192 312.616 150.504 311.296 150.504C309.568 150.504 308.212 149.988 307.228 148.956C306.268 147.9 305.788 146.424 305.788 144.528V135.528C305.788 135 305.548 134.736 305.068 134.736H303.484L303.16 133.8C303.784 133.176 304.54 132.66 305.428 132.252C306.34 131.844 307.168 131.64 307.912 131.64C308.248 131.64 308.524 131.748 308.74 131.964C308.956 132.18 309.064 132.456 309.064 132.792V143.7C309.064 145.14 309.352 146.232 309.928 146.976C310.528 147.72 311.392 148.092 312.52 148.092C314.128 148.092 315.376 147.396 316.264 146.004C317.176 144.612 317.632 142.692 317.632 140.244C317.632 138.468 317.524 137.088 317.308 136.104C317.116 135.096 316.756 134.136 316.228 133.224L315.796 132.648L316.228 132.108L320.62 131.64V146.832ZM332.17 144.24C332.17 145.368 332.254 146.268 332.422 146.94C332.59 147.612 332.89 148.26 333.322 148.884L333.754 149.46L333.322 150H327.022L326.626 148.884L327.382 148.704C327.982 148.56 328.378 148.308 328.57 147.948C328.786 147.564 328.894 146.916 328.894 146.004V135.888C328.894 135.6 328.834 135.396 328.714 135.276C328.618 135.156 328.438 135.096 328.174 135.096H326.59L326.266 134.16C326.962 133.536 327.754 133.02 328.642 132.612C329.554 132.204 330.346 132 331.018 132C331.354 132 331.63 132.108 331.846 132.324C332.062 132.54 332.17 132.816 332.17 133.152V137.004C332.794 135.42 333.706 134.136 334.906 133.152C336.106 132.144 337.366 131.64 338.686 131.64C340.15 131.64 341.254 132.072 341.998 132.936C342.742 133.8 343.174 135.156 343.294 137.004C343.918 135.42 344.83 134.136 346.03 133.152C347.23 132.144 348.49 131.64 349.81 131.64C351.418 131.64 352.582 132.156 353.302 133.188C354.046 134.22 354.418 135.864 354.418 138.12V146.832C354.418 147.648 354.778 148.056 355.498 148.056C356.05 148.056 356.65 147.804 357.298 147.3L357.982 148.236C357.358 148.932 356.686 149.484 355.966 149.892C355.246 150.3 354.574 150.504 353.95 150.504C352.966 150.504 352.258 150.204 351.826 149.604C351.394 149.004 351.178 148.032 351.178 146.688V138.12C351.178 135.672 350.29 134.448 348.514 134.448C347.506 134.448 346.618 134.844 345.85 135.636C345.082 136.404 344.47 137.496 344.014 138.912C343.558 140.328 343.318 141.96 343.294 143.808V144.24C343.294 145.488 343.39 146.484 343.582 147.228C343.798 147.948 344.23 148.692 344.878 149.46L344.446 150H340.054V138.12C340.054 135.672 339.166 134.448 337.39 134.448C336.358 134.448 335.446 134.856 334.654 135.672C333.886 136.488 333.274 137.64 332.818 139.128C332.386 140.616 332.17 142.32 332.17 144.24ZM380.151 132.108C380.151 132.612 380.079 133.068 379.935 133.476C379.791 133.884 379.587 134.184 379.323 134.376H375.471V145.968C375.471 146.712 375.579 147.24 375.795 147.552C376.011 147.864 376.359 148.02 376.839 148.02C377.559 148.02 378.375 147.636 379.287 146.868L379.971 147.804C379.347 148.62 378.603 149.28 377.739 149.784C376.875 150.264 376.059 150.504 375.291 150.504C374.307 150.504 373.539 150.204 372.987 149.604C372.459 148.98 372.195 148.128 372.195 147.048V134.376H369.027C369.027 133.728 369.075 133.308 369.171 133.116C369.267 132.924 369.507 132.78 369.891 132.684C371.163 132.348 372.063 131.808 372.591 131.064C373.143 130.296 373.539 129.312 373.779 128.112C373.851 127.728 373.971 127.488 374.139 127.392C374.331 127.296 374.775 127.248 375.471 127.248V132.108H380.151ZM384.212 126.312C384.212 125.856 384.464 125.352 384.968 124.8C385.496 124.224 385.976 123.936 386.408 123.936C386.864 123.936 387.356 124.212 387.884 124.764C388.412 125.316 388.676 125.832 388.676 126.312C388.676 126.768 388.412 127.272 387.884 127.824C387.356 128.376 386.864 128.652 386.408 128.652C386 128.652 385.532 128.376 385.004 127.824C384.476 127.272 384.212 126.768 384.212 126.312ZM388.028 146.832C388.028 147.648 388.388 148.056 389.108 148.056C389.708 148.056 390.308 147.804 390.908 147.3L391.592 148.236C390.968 148.932 390.296 149.484 389.576 149.892C388.856 150.3 388.184 150.504 387.56 150.504C386.576 150.504 385.868 150.204 385.436 149.604C385.004 149.004 384.788 148.032 384.788 146.688V135.528C384.788 135.24 384.728 135.036 384.608 134.916C384.512 134.796 384.332 134.736 384.068 134.736H382.484L382.16 133.8C382.856 133.176 383.648 132.66 384.536 132.252C385.424 131.844 386.216 131.64 386.912 131.64C387.248 131.64 387.524 131.748 387.74 131.964C387.956 132.18 388.064 132.456 388.064 132.792L388.028 146.832ZM407.775 146.292C407.847 146.22 407.955 146.184 408.099 146.184C408.291 146.184 408.483 146.292 408.675 146.508C408.891 146.724 408.999 146.952 408.999 147.192C408.999 147.336 408.963 147.444 408.891 147.516C408.051 148.476 407.067 149.22 405.939 149.748C404.835 150.252 403.659 150.504 402.411 150.504C400.755 150.504 399.267 150.108 397.947 149.316C396.627 148.5 395.595 147.384 394.851 145.968C394.107 144.528 393.735 142.908 393.735 141.108C393.735 139.212 394.095 137.556 394.815 136.14C395.535 134.7 396.543 133.596 397.839 132.828C399.159 132.036 400.695 131.64 402.447 131.64C404.295 131.64 405.807 132.096 406.983 133.008C408.183 133.896 408.783 135.048 408.783 136.464C408.783 137.496 408.447 138.348 407.775 139.02C407.127 139.668 406.287 139.992 405.255 139.992C404.799 139.992 404.571 139.86 404.571 139.596C404.571 139.524 404.655 139.356 404.823 139.092C404.991 138.828 405.135 138.504 405.255 138.12C405.375 137.736 405.435 137.244 405.435 136.644C405.435 135.684 405.123 134.928 404.499 134.376C403.899 133.8 403.083 133.512 402.051 133.512C400.683 133.512 399.579 134.184 398.739 135.528C397.899 136.872 397.479 138.636 397.479 140.82C397.479 143.052 397.971 144.828 398.955 146.148C399.963 147.444 401.319 148.092 403.023 148.092C404.751 148.092 406.335 147.492 407.775 146.292ZM419.54 141.504C419.084 141.384 418.856 141.132 418.856 140.748C418.856 140.556 418.892 140.4 418.964 140.28C419.06 140.136 419.204 140.064 419.396 140.064C419.468 140.064 419.708 140.124 420.116 140.244C420.524 140.34 421.052 140.388 421.7 140.388C422.588 140.388 423.344 140.208 423.968 139.848C424.592 139.488 425.06 139.02 425.372 138.444C425.684 137.868 425.84 137.28 425.84 136.68C425.84 135.96 425.624 135.36 425.192 134.88C424.784 134.376 424.196 134.124 423.428 134.124C422.252 134.124 421.22 134.544 420.332 135.384C419.444 136.224 418.76 137.412 418.28 138.948C417.824 140.484 417.596 142.248 417.596 144.24C417.596 145.392 417.68 146.316 417.848 147.012C418.016 147.684 418.316 148.308 418.748 148.884L419.18 149.46L418.748 150H412.448L412.052 148.884L412.808 148.704C413.408 148.56 413.804 148.308 413.996 147.948C414.212 147.564 414.32 146.916 414.32 146.004V125.736C414.32 125.448 414.26 125.244 414.14 125.124C414.044 125.004 413.864 124.944 413.6 124.944H412.016L411.692 124.008C412.388 123.384 413.18 122.868 414.068 122.46C414.98 122.052 415.772 121.848 416.444 121.848C416.78 121.848 417.056 121.956 417.272 122.172C417.488 122.388 417.596 122.664 417.596 123V137.004C418.196 135.42 419.096 134.136 420.296 133.152C421.52 132.144 422.792 131.64 424.112 131.64C425.696 131.64 426.92 132.096 427.784 133.008C428.648 133.92 429.08 135.036 429.08 136.356C429.08 137.196 428.864 138.024 428.432 138.84C428.024 139.632 427.412 140.316 426.596 140.892C425.804 141.444 424.856 141.78 423.752 141.9L426.56 147.228C426.752 147.612 426.968 147.876 427.208 148.02C427.448 148.164 427.736 148.236 428.072 148.236C428.384 148.236 428.708 148.152 429.044 147.984C429.38 147.816 429.692 147.588 429.98 147.3L430.736 148.236C429.632 149.748 428.348 150.504 426.884 150.504C426.164 150.504 425.552 150.36 425.048 150.072C424.568 149.784 424.148 149.388 423.788 148.884C423.452 148.38 423.032 147.648 422.528 146.688L419.864 141.612L419.54 141.504ZM448.483 147.3C447.595 148.332 446.539 149.124 445.315 149.676C444.091 150.228 442.771 150.504 441.355 150.504C439.699 150.504 438.247 150.12 436.999 149.352C435.751 148.584 434.779 147.504 434.083 146.112C433.411 144.72 433.075 143.112 433.075 141.288C433.075 139.368 433.459 137.688 434.227 136.248C434.995 134.784 436.075 133.656 437.467 132.864C438.883 132.048 440.527 131.64 442.399 131.64C443.719 131.64 444.835 131.892 445.747 132.396C446.683 132.876 447.379 133.524 447.835 134.34C448.291 135.132 448.519 135.996 448.519 136.932C448.519 137.94 448.243 138.912 447.691 139.848C447.163 140.784 446.383 141.552 445.351 142.152C444.319 142.728 443.083 143.016 441.643 143.016C440.875 143.016 440.023 142.872 439.087 142.584C438.151 142.296 437.683 141.876 437.683 141.324C437.683 141.132 437.731 140.952 437.827 140.784C437.947 140.616 438.079 140.532 438.223 140.532C438.295 140.532 438.535 140.616 438.943 140.784C439.351 140.928 439.879 141 440.527 141C441.967 141 443.083 140.592 443.875 139.776C444.691 138.96 445.099 138 445.099 136.896C445.099 135.96 444.799 135.156 444.199 134.484C443.599 133.788 442.759 133.44 441.679 133.44C440.143 133.44 438.943 134.124 438.079 135.492C437.215 136.836 436.783 138.768 436.783 141.288C436.783 143.424 437.239 145.104 438.151 146.328C439.063 147.528 440.383 148.128 442.111 148.128C444.223 148.128 445.975 147.444 447.367 146.076C447.463 145.98 447.571 145.932 447.691 145.932C447.883 145.932 448.087 146.052 448.303 146.292C448.519 146.508 448.627 146.736 448.627 146.976C448.627 147.096 448.579 147.204 448.483 147.3ZM462.03 132.108C462.03 132.612 461.958 133.068 461.814 133.476C461.67 133.884 461.466 134.184 461.202 134.376H457.35V145.968C457.35 146.712 457.458 147.24 457.674 147.552C457.89 147.864 458.238 148.02 458.718 148.02C459.438 148.02 460.254 147.636 461.166 146.868L461.85 147.804C461.226 148.62 460.482 149.28 459.618 149.784C458.754 150.264 457.938 150.504 457.17 150.504C456.186 150.504 455.418 150.204 454.866 149.604C454.338 148.98 454.074 148.128 454.074 147.048V134.376H450.906C450.906 133.728 450.954 133.308 451.05 133.116C451.146 132.924 451.386 132.78 451.77 132.684C453.042 132.348 453.942 131.808 454.47 131.064C455.022 130.296 455.418 129.312 455.658 128.112C455.73 127.728 455.85 127.488 456.018 127.392C456.21 127.296 456.654 127.248 457.35 127.248V132.108H462.03Z" fill="white"/>
</svg>
