<svg id="Calque_1" data-name="Calque 1" xmlns="http://www.w3.org/2000/svg" viewBox="0 0 437.3 437.3"><defs><style>.cls-1{fill:#706f6f;}.cls-1,.cls-2,.cls-3{stroke:#1d1d1b;stroke-miterlimit:10;}.cls-1,.cls-2{stroke-width:2px;}.cls-2{fill:#dadada;}.cls-3{fill:none;stroke-width:5px;}</style></defs><path class="cls-1" d="M110.83,327.08c19.78,9.63,39.88,18.09,61.68,21.85,51.7,8.93,102.79,8.52,152.8-9.39a102.29,102.29,0,0,0,15.11-6.67c28-15.53,30.29-30.73,8.57-56.35,15.14.38,36.05,14.56,39.2,27.47,3.91,16-4.38,26.69-16.91,35.25-22.59,15.44-48.64,21.31-74.88,25.28-46.64,7.06-93,4.6-138.51-8.67C139.92,350.61,123.28,342.74,110.83,327.08Z" transform="translate(-31.35 -31.35)"/><path class="cls-2" d="M248.94,131.62c-14,27.51-3.43,46.94,9.92,65.94,6.33,9,12.51,18.17,18,27.71,16.95,29.64,8.25,61.15-22.13,80-.38-1.4-1.37-3-.94-3.81,16.51-32.81,6-62.18-11.66-90.54-5.57-8.93-11.41-17.68-14.73-27.77C220.34,161.77,225.22,148.19,248.94,131.62Z" transform="translate(-31.35 -31.35)"/><path class="cls-2" d="M202.41,166.23c-4.7,30.12,10.05,50.55,21.3,72.08,7.18,13.73,7.15,26.67-3.15,41.4-3.22-24.52-20.95-39.58-30.52-59.15C179.34,198.67,181.14,187.44,202.41,166.23Z" transform="translate(-31.35 -31.35)"/><path class="cls-1" d="M332.67,288.19c13,10.38,12.61,22-2.23,32.07-19.51,13.28-41.63,18.2-66.38,18.22C291,326.18,327.84,329.75,332.67,288.19Z" transform="translate(-31.35 -31.35)"/><circle class="cls-3" cx="218.65" cy="218.65" r="216.15"/></svg>