<svg width="373" height="183" viewBox="0 0 373 183" fill="none" xmlns="http://www.w3.org/2000/svg">
<path d="M75.4008 25.0251C85.4764 25.0251 95.5569 24.9222 105.631 25.1331C143.743 25.9311 180.58 33.1454 217.427 43.1677C242.327 49.9402 267.002 57.8362 292.322 62.7502C295.762 63.418 299.23 63.8918 302.671 64.5501C304.515 64.9029 305.456 65.1421 302.671 65.342C225.921 70.8526 148.855 67.9927 72.0646 72.1815C66.4942 72.4854 60.9077 72.7839 55.3496 73.2974C54.1006 73.4128 51.9263 73.6182 50.5496 73.9094C49.0435 74.2279 50.6918 74.1974 51.2304 74.1974C62.9819 74.1974 74.7985 73.1154 86.5328 72.6495C116.717 71.451 146.919 71.0534 177.121 70.7416C214.159 70.3593 251.197 70.3817 288.236 70.3817C292.288 70.3817 296.339 70.3817 300.39 70.3817C300.651 70.3817 301.434 70.3817 301.173 70.3817C300.503 70.3817 299.834 70.3817 299.164 70.3817C293.406 70.3817 291.7 70.3377 285.002 70.6336C233.927 72.8907 183.23 82.5579 132.593 89.3882C103.568 93.3032 73.4291 99.0567 44.0134 98.2435C40.0278 98.1333 44.1833 96.7328 45.6814 96.1557C60.9751 90.2646 76.7128 85.4115 92.3201 80.5689C128.732 69.271 165.488 59.4928 202.585 51.0871C208.563 49.7326 214.516 48.3201 220.389 46.5155C221.85 46.0666 229.707 44.1656 223.181 43.5277C208.455 42.0884 193.292 42.6781 178.551 43.0597C150.933 43.7747 123.383 45.8154 95.8946 48.6753C72.9778 51.0595 50.3081 54.9147 27.4686 57.7826C27.1274 57.8254 22.2893 58.3553 27.1622 57.6026C37.4973 56.0063 47.8329 54.3949 58.1752 52.851C84.2154 48.9637 110.369 45.9237 136.678 45.2556C143.504 45.0822 150.343 45.0641 157.172 45.1116C162.181 45.1464 157.673 45.7156 155.401 46.0475C133.447 49.2554 111.364 52.3084 89.9711 58.6466C85.0029 60.1185 79.6895 61.7535 75.1285 64.4061C69.4117 67.7309 74.0793 69.9811 78.3966 71.1736C90.6049 74.5457 103.693 75.592 116.184 76.7532C145.015 79.4332 173.959 80.4088 202.891 80.6049C234.429 80.8187 266.809 81.6186 298.143 76.9332C299.212 76.7733 302.388 76.2326 301.309 76.2132C289.561 76.0027 277.788 76.2132 266.041 76.2132C215.895 76.2132 165.75 76.2132 115.605 76.2132C105.654 76.2132 95.7007 76.272 85.7498 76.2132C85.1191 76.2095 79.1391 76.2008 77.7838 75.9252C77.079 75.7819 78.8547 74.8 79.554 74.6293C94.7456 70.9223 110.491 68.9159 125.852 66.206C150.087 61.9308 174.335 57.6047 198.704 54.2549C216.189 51.8513 234.24 51.7936 251.606 48.6753C252.022 48.6008 252.623 48.7379 252.832 48.3513C253.485 47.1434 250.316 47.5075 249.019 47.2714C234.601 44.6467 220.013 42.9422 205.512 40.9359C176.443 36.9138 147.409 32.6305 118.295 28.9848C115.618 28.6497 107.682 27.6208 110.363 27.3289C121.148 26.1549 132.366 26.8091 143.18 26.609C175.602 26.009 208.013 25.6058 240.44 25.6731C246.635 25.6859 252.84 25.6607 259.028 26.033C261.845 26.2026 268.883 26.5253 260.662 28.1209C226.489 34.7532 191.876 38.918 157.648 45.3276C143.16 48.0406 128.485 50.5555 114.278 54.6869C110.872 55.6773 101.503 58.7819 104.882 59.8705C111.953 62.1483 121.629 61.3899 128.712 61.5623C152.447 62.14 176.184 61.781 199.895 60.5184C216.198 59.6503 232.465 58.2617 248.747 57.0627C260.632 56.1874 272.761 54.829 284.696 55.2628C286.991 55.3462 292.79 55.2264 294.296 57.9986C297.02 63.0123 280.29 68.7354 279.045 69.2297C259.975 76.8007 239.746 81.2364 219.844 85.5365C196.338 90.6156 172.672 94.7858 149.069 99.3234C139.514 101.161 129.967 103.055 120.473 105.227C118.99 105.566 112.312 107.16 110.465 107.675C109.344 107.987 106.24 108.542 107.265 109.115C110.843 111.113 122.1 109.799 124.967 109.763C149.077 109.461 173.181 107.882 197.206 105.803C235.218 102.514 273.084 97.6761 310.637 90.6121C315.645 89.67 320.996 89.0605 325.888 87.5163C329.441 86.3949 318.497 86.7813 314.79 86.7244C238.165 85.5477 161.282 93.2171 85.4094 104.075C83.5393 104.343 77.9745 105.189 79.8604 105.263C91.3633 105.713 103.225 104.296 114.686 103.679C163.424 101.057 212.181 100.816 260.934 98.8915C270.399 98.5178 279.866 98.0997 289.326 97.5956C292.829 97.4089 300.057 98.2048 303.351 96.1557C305.396 94.8838 299.134 93.7723 296.849 93.0959C281.973 88.6916 266.876 85.073 251.845 81.3248C227.08 75.1493 202.043 69.711 177.461 62.7502C177.425 62.74 167.778 59.4931 168.201 59.2225C172.324 56.589 181.264 57.5203 185.699 57.1347C215.246 54.5658 244.724 50.2952 274.415 50.2952C275.096 50.2952 277.138 50.2952 276.458 50.2952C271.501 50.2952 266.559 49.9125 261.615 49.5752C235.688 47.8065 209.771 47.0554 183.793 47.0554C179.401 47.0554 174.974 46.94 170.584 47.1994C167.922 47.3568 165.889 47.6501 169.836 48.9273C188.811 55.0675 208.265 59.749 227.368 65.45C235.829 67.975 244.297 70.4964 252.628 73.4774C257.742 75.3077 264.604 77.0952 268.968 80.7489C273.208 84.2984 263.212 86.3413 262.228 86.5804C244.868 90.7988 226.643 92.3216 208.985 94.3558C167.117 99.179 125.111 102.461 83.2647 107.531C76.5399 108.346 69.8131 109.16 63.1454 110.411C61.0394 110.806 55.0322 112.01 57.0858 112.642C62.269 114.239 68.3703 114.526 73.6306 115.27C92.0965 117.883 110.547 120.615 129.018 123.19C165.792 128.315 202.841 133.182 239.896 135.393C244.637 135.676 249.385 135.693 254.126 135.969C254.849 136.011 257.491 136.198 258.415 136.473C259.553 136.811 258.253 137.181 257.938 137.265C239.332 142.226 219.014 143.515 199.997 145.436C184.047 147.047 168.048 148.099 152.065 149.288C151.577 149.324 147.563 149.432 151.895 149.432C163.265 149.432 174.636 149.432 186.006 149.432C224.469 149.432 262.855 148.993 301.241 146.192C310.526 145.514 319.806 144.725 329.088 143.996C332.774 143.706 337.833 144.047 341.411 142.628C343.247 141.9 337.579 141.666 335.624 141.512C317.225 140.061 298.712 139.597 280.27 139.352C229.56 138.68 178.47 140.341 128.44 149.792C122.421 150.929 116.417 152.267 110.499 153.895C108.325 154.493 102.004 156.246 104.235 156.523C109.859 157.223 115.954 156.957 121.563 156.919C141.926 156.781 162.26 155.459 182.568 153.967C210.083 151.946 237.566 149.427 264.985 146.264C266.115 146.134 279.596 145.058 268.594 144.608C249.881 143.843 231.074 144.187 212.355 144.32C175.033 144.585 137.856 145.798 100.729 149.936C95.5552 150.512 90.3836 151.103 85.2051 151.627C81.76 151.976 80.2193 152.107 85.1371 150.764C136.547 136.72 187.538 118.326 240.508 111.85C284.591 106.462 151.871 117.274 107.741 122.218C88.0589 124.423 68.4091 126.889 48.7113 128.949C47.1115 129.116 42.1907 129.553 47.9623 128.913C59.7285 127.61 71.4719 126.112 83.2307 124.738C124.124 119.956 165.184 117.448 206.261 115.234C227.533 114.088 248.867 111.693 270.16 111.239C315.783 110.264 178.817 110.133 133.274 113.146C123.931 113.765 114.585 114.542 105.256 115.378C101.704 115.697 95.0771 115.301 91.7754 117.322C89.846 118.503 96.1853 118.114 98.4137 118.186C112.065 118.627 125.745 118.695 139.401 118.834C185.94 119.307 232.665 116.67 279.181 118.366C308.864 119.448 219.782 120.728 190.091 119.914C180.926 119.663 169.77 120.586 160.78 117.826C157.859 116.929 166.862 117.691 169.904 117.682C183.229 117.644 196.548 117.37 209.87 117.034C245.378 116.138 280.917 114.895 316.424 114.442C339.532 114.148 270.252 112.078 247.147 111.563C230.733 111.197 213.958 110.254 197.546 111.347C196.931 111.387 196.315 111.447 195.708 111.563C194.704 111.753 194.532 111.941 195.708 112.174C203.651 113.749 212.411 113.431 220.423 113.794C249.875 115.132 279.387 115.738 308.866 115.738C317.78 115.738 326.729 115.801 335.624 115.09C338.473 114.863 341.726 114.763 344.475 113.794C345.576 113.406 345.024 113.026 344.203 112.75C337.948 110.653 331.333 109.415 325.003 107.603C299.073 100.181 273.158 92.0136 248.066 81.8288C242.833 79.7048 237.461 77.5793 232.542 74.7013C228.867 72.5504 226.63 70.2738 232.168 69.1217C243.386 66.7883 255.165 66.3732 266.517 65.1621C281.653 63.5473 296.793 61.9751 311.93 60.3744C319.543 59.5694 327.141 58.6603 334.739 57.7106C338.417 57.2509 343.69 57.4417 347.13 55.6228C348.656 54.8163 343.918 54.3148 342.228 54.0749C328.385 52.1101 314.429 51.1693 300.492 50.3312C273.63 48.7158 246.747 47.5129 219.878 46.0475C215.27 45.7962 210.192 46.1792 205.649 45.1116C204.409 44.8203 207.737 43.4173 208.985 43.1677C219.986 40.9669 231.286 40.2323 242.381 38.6681C246.239 38.1241 257.882 37.3362 253.989 37.3362C240.965 37.3362 227.924 37.1639 214.908 37.7321C206.586 38.0955 181.727 40.5039 190.057 40.5039C204.643 40.5039 219.54 36.6905 233.836 34.0964C246.311 31.8328 258.707 28.9514 271.181 26.753C278.369 25.4862 271.05 26.8167 268.287 27.4009C249.646 31.3432 230.987 36.2746 212.525 41.0799C208.597 42.1023 204.659 43.1723 200.78 44.3916C200.014 44.6326 194.906 46.1246 198.84 46.6595C204.409 47.4166 210.352 47.0774 215.929 47.0554C231.766 46.993 247.554 46.3615 263.317 44.6796C287.369 42.1133 311.165 37.4276 335.215 34.8524M347.947 34.0964C346.79 34.0964 345.633 34.0964 344.475 34.0964C312.032 34.0964 279.59 34.0964 247.147 34.0964C229.229 34.0964 282.982 34.0964 300.9 34.0964" stroke="#D6614A" stroke-opacity="0.8" stroke-width="50" stroke-linecap="round"/>
</svg>
